<svg xmlns="http://www.w3.org/2000/svg" xmlns:xlink="http://www.w3.org/1999/xlink" width="381" height="350" viewBox="0 0 381 350">
  <defs>
    <linearGradient id="software-engineers-il-b" x1="48.253%" x2="148.509%" y1="32.303%" y2="71.766%">
      <stop offset="0%" stop-color="#2D8FE2"/>
      <stop offset="100%" stop-color="#2D8FE2" stop-opacity="0"/>
    </linearGradient>
    <linearGradient id="software-engineers-il-c" x1="70.281%" x2="70.281%" y1="118.117%" y2="-47.41%">
      <stop offset="0%" stop-color="#2D8FE2" stop-opacity=".217"/>
      <stop offset="100%" stop-color="#2D8FE2"/>
    </linearGradient>
    <path id="software-engineers-il-a" d="M209.576076,68.630281 C208.252207,68.630281 206.943663,68.6962475 205.652802,68.8218979 C206.021002,66.1219837 206.215516,63.3667047 206.215516,60.5658774 C206.215516,27.1161545 179.078751,-1.84741111e-13 145.603998,-1.84741111e-13 C118.409469,-1.84741111e-13 95.3979586,17.8957667 87.7203818,42.5444603 C83.3357774,40.8921567 78.5853308,39.9855101 73.621902,39.9855101 C51.5495564,39.9855101 33.6559062,57.8655705 33.6559062,79.9211528 C33.6559062,80.3625 33.6657301,80.8014913 33.6798766,81.2396973 C15.0411816,81.2373413 1.42108547e-13,96.2674922 1.42108547e-13,114.808003 C1.42108547e-13,133.08504 12.7164532,148.461515 40.6689942,148.358639 C62.8187521,148.276966 211.323945,148.461515 211.323945,148.461515 C232.585229,147.546623 249.542072,130.036446 249.542072,108.565924 C249.542072,86.5099487 231.648815,68.630281 209.576076,68.630281 Z"/>
    <linearGradient id="software-engineers-il-e" x1="48.253%" x2="148.509%" y1="19.338%" y2="87.71%">
      <stop offset="0%" stop-color="#2D8FE2"/>
      <stop offset="100%" stop-color="#2D8FE2" stop-opacity="0"/>
    </linearGradient>
    <linearGradient id="software-engineers-il-f" x1="70.281%" x2="70.281%" y1="118.117%" y2="-47.41%">
      <stop offset="0%" stop-color="#2D8FE2" stop-opacity=".217"/>
      <stop offset="100%" stop-color="#2D8FE2"/>
    </linearGradient>
    <rect id="software-engineers-il-d" width="146.263" height="114.537" x=".909" y="0" rx="3.559"/>
    <linearGradient id="software-engineers-il-h" x1="48.253%" x2="148.509%" y1="19.509%" y2="87.501%">
      <stop offset="0%" stop-color="#2D8FE2"/>
      <stop offset="100%" stop-color="#2D8FE2" stop-opacity="0"/>
    </linearGradient>
    <linearGradient id="software-engineers-il-i" x1="70.281%" x2="70.281%" y1="118.117%" y2="-47.41%">
      <stop offset="0%" stop-color="#2D8FE2" stop-opacity=".217"/>
      <stop offset="100%" stop-color="#2D8FE2"/>
    </linearGradient>
    <path id="software-engineers-il-g" d="M-4.40536496e-13,3.55938389 C-4.40536496e-13,1.59359045 1.59275673,-1.20792265e-13 3.56110026,-1.20792265e-13 L142.702237,-1.20792265e-13 C144.668978,-1.20792265e-13 146.263337,1.59282591 146.263337,3.55938389 L146.263337,110.659188 C146.263337,112.624981 144.670581,114.218572 142.702237,114.218572 L3.56110026,114.218572 C1.59435889,114.218572 -4.40536496e-13,112.625746 -4.40536496e-13,110.659188 L-4.40536496e-13,3.55938389 Z"/>
    <path id="software-engineers-il-j" d="M84.9843216,53.0654961 C85.4384278,53.0654961 85.7975647,52.9486947 86.0617322,52.715092 C86.3258998,52.4814893 86.4579836,52.1572837 86.4579836,51.7424751 C86.4579836,51.364781 86.352644,51.0536746 86.1419649,50.8091559 C85.9312858,50.5646371 85.5934352,50.3583245 85.128413,50.1902178 C84.8620622,50.0766913 84.67649,49.9669853 84.5716962,49.8611 C84.4669025,49.7552147 84.4145056,49.6367759 84.4145056,49.5057837 C84.4145056,49.3376771 84.4614445,49.2039559 84.5553222,49.1046202 C84.6491999,49.0052845 84.7801921,48.9556166 84.9482987,48.9556166 C85.1273214,48.9556166 85.2643174,49.0140173 85.3592867,49.1308186 C85.454256,49.24762 85.5017407,49.417364 85.5017407,49.6400507 L85.5017407,49.6400507 L86.4612584,49.6400507 C86.4612584,49.3540511 86.3995829,49.0986164 86.2762319,48.8737465 C86.1528809,48.6488766 85.9765873,48.4747661 85.747351,48.3514152 C85.5181147,48.2280642 85.2572219,48.1663887 84.9646728,48.1663887 C84.525849,48.1663887 84.1639831,48.2881023 83.8790751,48.5315294 C83.5941671,48.7749565 83.4517131,49.0975248 83.4517131,49.4992341 C83.4517131,49.831081 83.5565069,50.1187179 83.7660943,50.3621451 C83.9756818,50.6055722 84.3195363,50.8178887 84.7976577,50.9990945 C85.0596421,51.1060715 85.2403021,51.2092278 85.3396379,51.3085635 C85.4389736,51.4078993 85.4886415,51.5547197 85.4886415,51.7490247 C85.4886415,52.1048868 85.3205348,52.2828178 84.9843216,52.2828178 C84.7419861,52.2828178 84.5673298,52.2205966 84.4603529,52.096154 C84.3533759,51.9717114 84.2998875,51.7719484 84.2998875,51.4968648 L84.2998875,51.4968648 L83.3338202,51.4968648 C83.3338202,51.8177956 83.4053201,52.096154 83.5483199,52.3319399 C83.6913196,52.5677258 83.8894453,52.7489317 84.1426969,52.8755574 C84.3959484,53.0021832 84.67649,53.0654961 84.9843216,53.0654961 Z M88.6783009,53.0654961 C89.1913536,53.0654961 89.5886965,52.9257711 89.8703297,52.6463211 C90.1519629,52.3668712 90.3047871,51.9553374 90.3288023,51.4117199 L90.3288023,51.4117199 L89.3660098,51.4117199 C89.3529106,51.7348339 89.2983306,51.9580664 89.2022696,52.0814174 C89.1062087,52.2047683 88.9315525,52.2664438 88.6783009,52.2664438 C88.420683,52.2664438 88.2389313,52.1780241 88.133046,52.0011847 C88.0271606,51.8243452 87.974218,51.499048 87.974218,51.025293 L87.974218,51.025293 L87.974218,50.1247218 C87.9807676,49.7120964 88.0375309,49.4157266 88.1445078,49.2356124 C88.2514848,49.0554981 88.4337822,48.965441 88.6914001,48.965441 C88.9446517,48.965441 89.1187621,49.0292997 89.2137314,49.1570171 C89.3087008,49.2847344 89.3605518,49.5166997 89.3692846,49.852913 L89.3692846,49.852913 L90.3353519,49.852913 C90.2982375,49.3092955 90.1448675,48.8923037 89.8752419,48.6019377 C89.6056164,48.3115717 89.2110024,48.1663887 88.6914001,48.1663887 C88.163065,48.1663887 87.7504397,48.343774 87.4535241,48.6985444 C87.1566085,49.0533149 87.0081507,49.5581806 87.0081507,50.2131415 L87.0081507,50.2131415 L87.0081507,51.0154685 C87.0081507,51.6726126 87.1516963,52.1785699 87.4387875,52.5333404 C87.7258786,52.8881109 88.1390498,53.0654961 88.6783009,53.0654961 Z M92.5654937,53.0654961 C93.1025616,53.0654961 93.5222824,52.8886567 93.824656,52.5349778 C94.1270296,52.1812989 94.2782164,51.6846202 94.2782164,51.0449418 L94.2782164,51.0449418 L94.2782164,50.2295155 C94.27385,49.5767378 94.1188426,49.0696889 93.8131942,48.7083689 C93.5075458,48.3470488 93.0894624,48.1663887 92.5589441,48.1663887 C92.019693,48.1663887 91.5983348,48.3503236 91.2948696,48.7181933 C90.9914044,49.086063 90.8396718,49.5974782 90.8396718,50.2524391 L90.8396718,50.2524391 L90.8396718,51.0678654 C90.8440382,51.6988111 90.9990456,52.1894859 91.304694,52.53989 C91.6103424,52.8902941 92.030609,53.0654961 92.5654937,53.0654961 Z M92.5654937,52.263169 C92.3056926,52.263169 92.1135707,52.1643791 91.9891282,51.9667992 C91.8646856,51.7692194 91.8024643,51.4619335 91.8024643,51.0449418 L91.8024643,51.0449418 L91.8024643,50.1967674 C91.8068307,49.7841421 91.8701436,49.4768563 91.992403,49.27491 C92.1146623,49.0729637 92.3035094,48.9719906 92.5589441,48.9719906 C92.8165621,48.9719906 93.0065007,49.0767844 93.1287601,49.2863718 C93.2510194,49.4959593 93.3121491,49.8157985 93.3121491,50.2458895 L93.3121491,50.2458895 L93.3121491,51.074415 C93.3099659,51.4804908 93.2477446,51.7801354 93.1254853,51.9733488 C93.0032259,52.1665623 92.8165621,52.263169 92.5654937,52.263169 Z M95.9352674,53 L95.9352674,51.2578041 L96.4133889,51.2578041 L97.130571,53 L98.1654092,53 L98.1654092,52.9541527 L97.3303341,51.0023693 C97.7909899,50.7491178 98.0213178,50.3059276 98.0213178,49.6727987 C98.0213178,49.2121429 97.8897798,48.8568267 97.6267039,48.6068499 C97.3636279,48.3568732 96.990846,48.2318848 96.5083582,48.2318848 L96.5083582,48.2318848 L94.9724749,48.2318848 L94.9724749,53 L95.9352674,53 Z M96.4821598,50.455477 L95.9352674,50.455477 L95.9352674,49.0342119 L96.4985338,49.0342119 C96.8718615,49.0342119 97.0585253,49.2732726 97.0585253,49.7513941 C97.0585253,49.9653479 97.0104949,50.1361836 96.9144339,50.2639009 C96.818373,50.3916183 96.6742816,50.455477 96.4821598,50.455477 L96.4821598,50.455477 Z M101.420565,53 L101.420565,52.2009477 L99.6456208,52.2009477 L99.6456208,50.9368732 L101.145481,50.9368732 L101.145481,50.1607446 L99.6456208,50.1607446 L99.6456208,49.0342119 L101.414015,49.0342119 L101.414015,48.2318848 L98.6828283,48.2318848 L98.6828283,53 L101.420565,53 Z M104.836186,53.0654961 C105.279376,53.0654961 105.620501,52.8908399 105.859562,52.5415274 C106.098623,52.1922149 106.218153,51.687895 106.218153,51.0285678 L106.218153,51.0285678 L106.218153,50.1607446 C106.213787,49.5210661 106.092619,49.0287539 105.85465,48.6838078 C105.616681,48.3388618 105.27501,48.1663887 104.829636,48.1663887 C104.384263,48.1663887 104.042591,48.3404992 103.804622,48.68872 C103.566653,49.0369409 103.447669,49.5396234 103.447669,50.1967674 L103.447669,50.1967674 L103.447669,51.0973387 C103.456401,51.7304675 103.580298,52.216776 103.819359,52.556264 C104.05842,52.8957521 104.397362,53.0654961 104.836186,53.0654961 Z M104.836186,52.2959171 C104.676812,52.2959171 104.559465,52.2020393 104.484144,52.0142839 C104.408824,51.8265284 104.371164,51.5405288 104.371164,51.1562851 L104.371164,51.1562851 L104.371164,49.9675311 C104.38208,49.2798222 104.534904,48.9359678 104.829636,48.9359678 C104.986827,48.9359678 105.102536,49.0298455 105.176765,49.2176009 C105.250994,49.4053564 105.288109,49.6869896 105.288109,50.0625005 L105.288109,50.0625005 L105.288109,51.225056 C105.283742,51.5874677 105.24499,51.8565475 105.171853,52.0322953 C105.098716,52.2080431 104.986827,52.2959171 104.836186,52.2959171 Z M107.478953,53.0360228 C107.631777,53.0360228 107.76004,52.9896298 107.863742,52.8968437 C107.967445,52.8040575 108.019296,52.6812524 108.019296,52.5284282 C108.019296,52.3777872 107.96799,52.254982 107.86538,52.1600127 C107.762769,52.0650433 107.63396,52.0175587 107.478953,52.0175587 C107.319579,52.0175587 107.190224,52.0655891 107.090889,52.1616501 C106.991553,52.257711 106.941885,52.3799704 106.941885,52.5284282 C106.941885,52.6790692 106.992644,52.8013285 107.094163,52.8952063 C107.195682,52.989084 107.323945,53.0360228 107.478953,53.0360228 Z M110.180666,53.0654961 C110.602025,53.0654961 110.934963,52.9426909 111.179482,52.6970806 C111.424001,52.4514703 111.54626,52.1168944 111.54626,51.6933531 C111.54626,51.4291855 111.489497,51.1994034 111.37597,51.0040067 C111.262444,50.8086101 111.107436,50.6552401 110.910948,50.5438967 C111.083421,50.4369198 111.218779,50.29392 111.317024,50.1148973 C111.415268,49.9358747 111.46439,49.7306536 111.46439,49.4992341 C111.46439,49.0866088 111.34868,48.7613115 111.117261,48.5233424 C110.885841,48.2853733 110.57146,48.1663887 110.174117,48.1663887 C109.78114,48.1663887 109.467851,48.2842817 109.234248,48.5200676 C109.000645,48.7558535 108.883844,49.0822424 108.883844,49.4992341 C108.883844,49.7306536 108.932966,49.9358747 109.03121,50.1148973 C109.129454,50.29392 109.265904,50.4369198 109.440561,50.5438967 C109.241889,50.6530569 109.08579,50.8058811 108.972264,51.0023693 C108.858737,51.1988576 108.801974,51.4291855 108.801974,51.6933531 C108.801974,52.1168944 108.926416,52.4514703 109.175302,52.6970806 C109.424187,52.9426909 109.759308,53.0654961 110.180666,53.0654961 Z M110.180666,50.1738438 C110.058407,50.1738438 109.966713,50.1165347 109.905583,50.0019166 C109.844453,49.8872984 109.813888,49.7361116 109.813888,49.5483562 C109.813888,49.3562343 109.844453,49.2061391 109.905583,49.0980706 C109.966713,48.990002 110.056224,48.9359678 110.174117,48.9359678 C110.298559,48.9359678 110.3908,48.9916394 110.450838,49.1029828 C110.510876,49.2143261 110.540895,49.3627839 110.540895,49.5483562 C110.540895,49.7361116 110.511422,49.8872984 110.452475,50.0019166 C110.393529,50.1165347 110.302926,50.1738438 110.180666,50.1738438 Z M110.180666,52.2959171 C110.038758,52.2959171 109.927961,52.2364248 109.848274,52.1174402 C109.768587,51.9984557 109.728743,51.833078 109.728743,51.6213074 C109.728743,51.4095367 109.768587,51.2436133 109.848274,51.1235371 C109.927961,51.0034609 110.036575,50.9434228 110.174117,50.9434228 C110.311659,50.9434228 110.419727,51.0034609 110.498323,51.1235371 C110.576918,51.2436133 110.616215,51.4095367 110.616215,51.6213074 C110.616215,51.833078 110.578555,51.9984557 110.503235,52.1174402 C110.427914,52.2364248 110.320391,52.2959171 110.180666,52.2959171 Z M112.869281,53.0491221 C113.524242,53.0403893 114.030199,52.8073323 114.387153,52.3499513 C114.744106,51.8925703 114.922583,51.2578041 114.922583,50.4456526 L114.922583,50.4456526 L114.922583,50.1083477 C114.922583,49.7284704 114.864728,49.3895282 114.749019,49.091521 C114.633309,48.7935138 114.47066,48.5648233 114.261073,48.4054495 C114.051485,48.2460756 113.812425,48.1663887 113.543891,48.1663887 C113.284089,48.1663887 113.048849,48.2384344 112.83817,48.3825258 C112.627491,48.5266172 112.463205,48.7291093 112.345312,48.990002 C112.227419,49.2508948 112.168473,49.5385318 112.168473,49.852913 C112.168473,50.3397672 112.272721,50.7289232 112.481217,51.0203808 C112.689712,51.3118383 112.975166,51.4575671 113.337578,51.4575671 C113.571181,51.4575671 113.786226,51.3571398 113.982714,51.1562851 C113.9456,51.5121472 113.835894,51.7828644 113.653597,51.9684366 C113.471299,52.1540089 113.198945,52.2478866 112.836533,52.2500698 L112.836533,52.2500698 L112.774312,52.2500698 L112.774312,53.0491221 L112.869281,53.0491221 Z M113.573364,50.7305606 C113.422723,50.7305606 113.30483,50.6514195 113.219685,50.4931372 C113.13454,50.334855 113.091968,50.1181721 113.091968,49.8430886 C113.091968,49.589837 113.132903,49.3753374 113.214773,49.1995895 C113.296643,49.0238417 113.404166,48.9359678 113.537341,48.9359678 C113.6727,48.9359678 113.782951,49.0249333 113.868096,49.2028643 C113.953241,49.3807954 113.995814,49.6258599 113.995814,49.9380579 L113.995814,49.9380579 L113.995814,50.3637825 C113.893203,50.6083012 113.752386,50.7305606 113.573364,50.7305606 Z M116.966061,53.0654961 C117.409251,53.0654961 117.750377,52.8908399 117.989438,52.5415274 C118.228498,52.1922149 118.348029,51.687895 118.348029,51.0285678 L118.348029,51.0285678 L118.348029,50.1607446 C118.343662,49.5210661 118.222494,49.0287539 117.984525,48.6838078 C117.746556,48.3388618 117.404885,48.1663887 116.959512,48.1663887 C116.514138,48.1663887 116.172467,48.3404992 115.934498,48.68872 C115.696529,49.0369409 115.577544,49.5396234 115.577544,50.1967674 L115.577544,50.1967674 L115.577544,51.0973387 C115.586277,51.7304675 115.710174,52.216776 115.949234,52.556264 C116.188295,52.8957521 116.527237,53.0654961 116.966061,53.0654961 Z M116.966061,52.2959171 C116.806687,52.2959171 116.68934,52.2020393 116.61402,52.0142839 C116.538699,51.8265284 116.501039,51.5405288 116.501039,51.1562851 L116.501039,51.1562851 L116.501039,49.9675311 C116.511955,49.2798222 116.664779,48.9359678 116.959512,48.9359678 C117.116702,48.9359678 117.232412,49.0298455 117.306641,49.2176009 C117.38087,49.4053564 117.417984,49.6869896 117.417984,50.0625005 L117.417984,50.0625005 L117.417984,51.225056 C117.413618,51.5874677 117.374866,51.8565475 117.301729,52.0322953 C117.228591,52.2080431 117.116702,52.2959171 116.966061,52.2959171 Z M121.413246,53 L121.413246,51.9684366 L121.819321,51.9684366 L121.819321,51.1988576 L121.413246,51.1988576 L121.413246,48.2318848 L120.483201,48.2318848 L118.865448,51.3691474 L118.90802,51.9684366 L120.486476,51.9684366 L120.486476,53 L121.413246,53 Z M120.486476,51.1988576 L119.766019,51.1988576 L120.466827,49.6400507 L120.486476,49.6040279 L120.486476,51.1988576 Z"/>
    <linearGradient id="software-engineers-il-l" x1="48.253%" x2="148.509%" y1="5.546%" y2="104.673%">
      <stop offset="0%" stop-color="#2D8FE2"/>
      <stop offset="100%" stop-color="#2D8FE2" stop-opacity="0"/>
    </linearGradient>
    <linearGradient id="software-engineers-il-m" x1="70.281%" x2="70.281%" y1="118.117%" y2="-47.41%">
      <stop offset="0%" stop-color="#2D8FE2" stop-opacity=".217"/>
      <stop offset="100%" stop-color="#2D8FE2"/>
    </linearGradient>
    <rect id="software-engineers-il-k" width="41" height="38.659" x="53.091" y="66.543" rx="1.118"/>
    <linearGradient id="software-engineers-il-o" x1="48.253%" x2="148.509%" y1="5.943%" y2="104.186%">
      <stop offset="0%" stop-color="#2D8FE2"/>
      <stop offset="100%" stop-color="#2D8FE2" stop-opacity="0"/>
    </linearGradient>
    <linearGradient id="software-engineers-il-p" x1="70.281%" x2="70.281%" y1="118.117%" y2="-47.41%">
      <stop offset="0%" stop-color="#2D8FE2" stop-opacity=".217"/>
      <stop offset="100%" stop-color="#2D8FE2"/>
    </linearGradient>
    <rect id="software-engineers-il-n" width="41.6" height="39.05" x="99.491" y="66.335" rx="1.118"/>
    <ellipse id="software-engineers-il-q" cx="120.113" cy="86.038" rx="11.125" ry="11.157"/>
    <polygon id="software-engineers-il-s" points="7.787 0 15.575 14.504 0 14.504"/>
    <path id="software-engineers-il-u" d="M0.0545548926,0.882196601 C0.0545548926,0.882196601 6.85490215,-1.01560875 11.8595322,2.42093778 C16.8641623,5.85748432 17.8199685,12.4969675 17.8199685,12.4969675 L5.00625019,12.8306062 L0.0545548926,0.882196601 Z"/>
    <linearGradient id="software-engineers-il-x" x1="48.263%" x2="147.944%" y1="0%" y2="111.495%">
      <stop offset="0%" stop-color="#2D8FE2"/>
      <stop offset="100%" stop-color="#2D8FE2" stop-opacity="0"/>
    </linearGradient>
    <ellipse id="software-engineers-il-w" cx="120.291" cy="85.86" rx="6.675" ry="6.694"/>
    <linearGradient id="software-engineers-il-z" x1="48.253%" x2="148.509%" y1="4.759%" y2="105.641%">
      <stop offset="0%" stop-color="#2D8FE2"/>
      <stop offset="100%" stop-color="#2D8FE2" stop-opacity="0"/>
    </linearGradient>
    <linearGradient id="software-engineers-il-A" x1="70.281%" x2="70.281%" y1="118.117%" y2="-47.41%">
      <stop offset="0%" stop-color="#2D8FE2" stop-opacity=".217"/>
      <stop offset="100%" stop-color="#2D8FE2"/>
    </linearGradient>
    <rect id="software-engineers-il-y" width="41" height="39" x="7.091" y="66.335" rx="1.118"/>
    <polyline id="software-engineers-il-B" points="12.873 82.818 17.323 82.818 25.11 78.913 32.341 82.818 39.573 81.145 42.402 82.818"/>
  </defs>
  <g fill="none" fill-rule="evenodd">
    <g transform="translate(66)">
      <g fill-rule="nonzero">
        <use fill="#FFF" xlink:href="#software-engineers-il-a"/>
        <path fill="url(#software-engineers-il-b)" fill-opacity=".12" fill-rule="evenodd" stroke="url(#software-engineers-il-c)" stroke-linejoin="square" stroke-width="1.322" d="M209.576076,69.2912128 C208.289396,69.2912128 207.002584,69.3545677 205.716834,69.4797207 L204.885,69.5606901 L204.997932,68.7325902 C205.367203,66.0248227 205.554584,63.3000038 205.554584,60.5658774 C205.554584,27.4813495 178.713901,0.660931765 145.603998,0.660931765 C119.171116,0.660931765 96.0861902,17.9086723 88.3514109,42.7410133 L88.1430244,43.4100336 L87.4873147,43.1629346 C83.090794,41.5061405 78.4150058,40.6464419 73.621902,40.6464419 C51.9144666,40.6464419 34.316838,58.2307055 34.316838,79.9211528 C34.316838,80.3186397 34.3248205,80.7337859 34.3404642,81.2183718 L34.362492,81.9007153 L33.679793,81.900629 C15.4192412,81.8983209 0.660931765,96.6194925 0.660931765,114.808003 C0.660931765,134.567156 15.0906759,147.791841 40.6665572,147.697712 C49.6802565,147.664475 79.8895445,147.672242 124.622358,147.710061 C134.488115,147.718401 144.835805,147.728038 155.511358,147.738717 C169.039595,147.752251 182.403512,147.766751 195.013683,147.781251 C199.427243,147.786326 203.431332,147.791038 206.95227,147.795267 C208.907207,147.797623 208.907207,147.797623 210.194797,147.799194 C211.130294,147.800342 211.130294,147.800342 211.295531,147.801194 C232.269961,146.898646 248.88114,129.615854 248.88114,108.565924 C248.88114,86.8750837 231.283905,69.2912128 209.576076,69.2912128 Z"/>
      </g>
      <path fill="#2D8FE2" d="M147.455208 105.256347C149.967567 105.556829 151.919452 106.759251 152.804625 109.331096 153.929731 112.60057 152.247448 116.907862 148.145263 117.578003 146.465177 117.852481 144.869779 117.609207 143.437711 116.597061 141.887599 115.501458 141.105008 113.921369 140.904318 111.991599 140.700095 110.02856 141.281839 108.361134 142.640443 107.018046 143.740355 105.930697 145.081536 105.379676 146.583064 105.255521L147.455208 105.256347 147.455208 105.256347zM147.042839 108.16128C145.298394 108.155419 143.845606 109.568922 143.842859 111.274817 143.839719 113.254861 145.204132 114.765195 147.000378 114.770066 148.766093 114.774853 150.15099 113.263776 150.162763 111.319724 150.172966 109.624643 148.733128 108.166976 147.042839 108.16128zM122.741245 117.311944C122.73685 115.281298 122.731042 113.250651 122.728452 111.220004 122.726333 109.490995 122.737085 107.761903 122.719897 106.033142 122.716679 105.714086 122.80427 105.646725 123.089333 105.656219 123.909833 105.683543 124.731432 105.678342 125.552481 105.685937 125.553501 107.061632 125.56135 108.437327 125.549498 109.81294 125.547301 110.078173 125.608206 110.157503 125.868782 110.154119 127.058876 110.1386 128.249362 110.1386 129.439455 110.153954 129.707409 110.157421 129.792488 110.093197 129.788564 109.79676 129.771925 108.531352 129.790369 107.265448 129.77475 106.000039 129.771218 105.710949 129.844211 105.631454 130.119071 105.639379 130.851038 105.660676 131.583946 105.653825 132.316306 105.642185 132.534185 105.638801 132.635197 105.665877 132.634412 105.944731 132.624444 109.631578 132.625072 113.318424 132.63347 117.005354 132.634098 117.263322 132.567228 117.327299 132.327451 117.321768 131.58222 117.304762 130.836047 117.301295 130.09113 117.323006 129.818624 117.331013 129.774201 117.229724 129.77632 116.973654 129.787308 115.598042 129.773023 114.222181 129.788171 112.846734 129.791468 112.550132 129.702621 112.480212 129.434589 112.483349 128.257524 112.497382 127.080067 112.502335 125.903238 112.48079 125.588663 112.475094 125.546437 112.593388 125.549341 112.882313 125.563077 114.244057 125.546045 115.606214 125.562841 116.967958 125.56653 117.26745 125.48043 117.328867 125.213104 117.322346 124.389544 117.302451 123.565277 117.3131 122.741245 117.311944M153.16841 125.754907C153.168253 126.241952 153.168175 126.72908 153.168018 127.216124 153.063631 127.220169 152.959243 127.227847 152.854935 127.227847 142.921268 127.228424 132.987602 127.228424 123.053936 127.227847 122.949549 127.227847 122.845161 127.220169 122.740774 127.216042 122.740774 126.728997 122.740696 126.24187 122.740696 125.754825 128.478543 125.752926 134.216468 125.749789 139.954315 125.749624 144.358987 125.749459 148.763738 125.753009 153.16841 125.754907M137.952198 121.026528C138.745228 121.026528 139.500113 121.03437 140.254684 121.021575 140.469894 121.01786 140.55984 121.069206 140.541866 121.313471 140.505056 121.815788 140.589115 122.322892 140.496422 122.824136 140.040886 122.831565 139.585349 122.844691 139.129812 122.845434 137.49572 122.847993 135.861784 122.846424 134.190724 122.846424 134.278394 122.620733 134.443138 122.490469 134.575074 122.336596 135.607095 121.13277 136.699473 119.98549 137.677181 118.731473 138.087352 118.2053 138.354521 117.596411 138.27784 116.882519 138.2156 116.303349 137.825521 115.908595 137.34118 115.922463 136.84224 115.936579 136.463385 116.339753 136.487872 116.942285 136.502706 117.307569 136.371163 117.328867 136.101404 117.320364 135.578683 117.303937 135.054784 117.302203 134.53222 117.321603 134.295975 117.330353 134.24488 117.243263 134.269761 117.017736 134.515031 114.788557 136.124793 113.918067 137.794911 114.139054 139.035864 114.303245 139.985867 114.947465 140.323438 116.295589 140.605754 117.423304 140.368882 118.447667 139.582602 119.293391 139.144254 119.764834 138.677651 120.207137 138.223605 120.6624 138.131226 120.755021 138.011927 120.822877 137.952198 121.026528"/>
      <path fill="#2D8FE2" d="M143.548464,56.2058614 C143.534763,56.2512203 143.523655,56.2969603 143.511066,56.3430815 C143.486627,56.433418 143.471446,56.5290908 143.458857,56.6297188 C143.605856,56.6125663 143.697315,56.6922301 143.81136,56.8088671 C143.790625,56.5290908 143.739156,56.321355 143.548464,56.2058614 L143.548464,56.2058614 Z M164.100671,68.5796753 C164.084008,68.0212661 163.97959,67.6984179 163.766681,67.1769819 C163.639676,66.8663311 163.569324,66.5747385 163.481198,66.280859 C163.290135,66.9841116 163.032793,67.6461981 162.798408,68.4070068 C162.577353,69.1270306 161.438011,71.2150617 160.769292,71.7227757 C160.899259,71.8226414 161.138828,71.8611392 161.565016,71.8992559 C161.867162,71.9251752 163.05501,71.9327985 163.354563,71.9373725 C164.011805,71.9495699 164.261371,71.8981124 164.328021,71.1281557 C164.360235,70.7500383 164.330983,70.6802848 164.148066,70.3494321 C164.132515,69.7597673 164.116593,69.1693401 164.100671,68.5796753 L164.100671,68.5796753 Z M175.579618,52.3434995 C175.426694,51.9623328 174.814997,51.390964 174.426577,51.7793728 C174.034824,52.1723557 173.740084,52.7254285 173.313155,53.0730525 C172.73108,53.5441745 171.730222,53.3821787 171.911658,54.3827412 C172.044217,55.1115319 172.081985,55.9276098 171.930542,56.6064676 C171.786134,57.2586438 171.635431,58.1856412 171.305144,58.622077 C171.402527,58.2523453 171.5673,57.286469 171.613215,56.634674 C171.638023,56.2782831 171.599144,55.8479459 171.534716,55.4145594 C171.461401,55.4160841 171.388457,55.4179899 171.314031,55.4202769 C171.047432,55.4256133 170.612727,55.8193584 170.49572,56.0652109 C170.169136,56.7494051 170.147289,57.3851911 169.781826,58.036605 C170.075826,57.3085766 169.910312,56.6518265 170.179133,55.8708159 C170.273554,55.5956136 170.513493,55.3581468 170.7912,55.2136846 C170.636425,55.1896711 170.48239,55.2594246 170.254299,55.3139314 C169.27788,55.5529229 169.321572,56.3430815 168.721354,57.0970291 C169.300096,56.0042243 169.004986,55.2796264 170.259853,54.9846034 C170.672712,54.8881682 170.974117,54.8496704 171.24553,55.0730341 C171.251084,55.0730341 171.257379,55.0730341 171.262563,55.0718906 C171.333656,55.0661731 171.404379,55.0600744 171.476583,55.0551193 C171.440666,54.8542444 171.402527,54.6568001 171.364759,54.4704096 C170.7912,54.3930327 170.262075,54.4094229 169.674076,54.5012841 C169.801081,54.4441091 169.924753,54.3915081 170.044723,54.3469116 C170.231712,54.2763957 170.413888,54.2203642 170.594954,54.1883462 C170.612727,54.1513731 170.623465,54.1109694 170.628279,54.0671352 C170.646792,53.8632111 170.500163,53.6806322 170.302065,53.6604304 C170.103597,53.641372 169.93438,53.7915517 169.915126,53.9962382 C169.90772,54.0766644 169.935121,54.1727184 169.979184,54.2523822 C169.969556,54.2344674 169.960299,54.2165526 169.951783,54.1978754 L169.951043,54.1967319 C169.874766,54.0461711 169.8407,53.8727402 169.856252,53.6928296 C169.869952,53.5571342 169.911053,53.4321115 169.974,53.321192 C169.954745,53.325766 169.935121,53.3322459 169.916237,53.339488 C169.776642,53.3970442 169.47894,53.378367 169.344529,53.3311024 C169.608537,53.2861247 170.0014,53.1416625 170.25541,53.0143529 C170.262075,53.0113035 170.26911,53.0086354 170.274664,53.0048237 C170.433143,52.9041957 170.623465,52.854644 170.821563,52.8737024 C170.922278,52.8839939 171.016699,52.9110567 171.103344,52.9533662 C171.221462,52.9891959 171.354021,53.037604 171.51287,53.0963037 C171.271449,52.5767735 170.998555,52.106795 170.67012,51.635673 C170.359458,51.1908515 170.098413,51.0372413 169.63964,50.7578461 C169.539295,50.6968595 169.441912,50.6358728 169.34527,50.5718368 C169.006096,50.5078008 168.627674,50.4449083 168.30109,50.5089443 C168.570281,50.3999306 168.772822,50.3560965 169.008688,50.3358946 C168.358483,49.856387 167.797884,49.3181796 167.156564,48.7628198 C164.681635,46.620663 162.679179,46.7727485 159.527384,48.1811594 C158.248448,48.7544341 157.790786,49.3307581 157.003948,50.3679126 C157.010613,50.3679126 157.019129,50.3671503 157.028386,50.3671503 C157.828554,50.3461861 158.624279,50.3179798 159.446663,50.238316 C158.596138,50.4422401 157.78227,50.6053795 156.946925,50.7357385 C156.025307,50.8802006 155.742045,50.8561871 155.047036,51.5525787 C153.765878,52.8355857 152.692446,54.2859249 151.51978,55.5872279 C150.841063,56.3415568 150.503741,57.0970291 150.105323,57.9561788 C149.709868,58.8107545 149.764669,59.1347462 150.295275,59.873066 C150.83662,60.6293007 151.164314,60.9712072 151.393886,61.6428229 C151.992994,60.6906686 152.715033,59.9012724 153.475581,58.9552167 C152.854627,59.980555 152.287734,60.9487184 151.77453,61.9912093 C151.454241,62.6395738 151.297614,62.9700453 151.307612,63.6870198 C151.9082,64.3994203 152.284772,64.7794435 152.842038,64.9368653 C153.442997,65.1068657 154.00878,65.0786593 154.551606,64.7889727 C155.902005,64.0697112 157.185754,63.1308976 158.684634,63.012736 C159.458512,61.5928901 159.24116,59.8075054 158.963452,58.1928833 C158.73351,56.8511766 158.791644,55.6676541 159.102306,54.3217546 C159.180064,55.6291563 159.28152,56.842791 159.533678,58.1242733 C159.900623,60.0019004 159.97801,61.6226211 159.210797,63.5627595 C157.554179,63.6035443 156.194523,64.6025822 154.725265,65.3763505 C154.064692,65.7239745 153.4467,65.7590419 152.707628,65.5779877 C151.954115,65.393503 151.376113,64.7950713 150.601124,63.9210561 C150.67703,63.2604943 150.760713,62.8495966 150.989544,62.3643714 C150.712947,61.5071276 150.370071,61.1126201 149.736157,60.2355556 C149.000788,59.218984 148.988198,58.7787365 149.544354,57.6211333 C149.944993,56.7818043 150.320824,56.0076548 150.954738,55.2418909 C151.578654,54.4833692 152.152583,53.7770674 152.732806,53.1096445 C150.321935,53.4862372 148.783065,54.0850501 147.136074,55.5716001 C145.915272,56.6750776 145.153983,58.0446095 144.610787,59.6268324 C144.26643,60.6251079 144.170158,61.6310068 144.332339,63.2627813 C144.541175,65.366059 145.626086,67.7392027 146.794679,69.4704618 C146.652123,70.54802 146.467355,71.359905 146.175206,72.1302429 C145.843809,73.004258 147.161994,73.2714559 147.798499,73.4506042 C148.315776,73.5965911 150.279723,74.1515697 150.473748,73.4349764 C150.589275,73.0054015 150.589275,72.7058045 150.560393,72.2529785 C150.910675,71.5344793 151.016944,71.4384253 151.266881,71.0134245 C151.533851,70.5586927 151.556437,70.3768761 151.558659,69.8428616 C151.55977,69.1537123 151.542367,67.9229251 151.570508,67.4777224 C151.661226,67.8756604 151.768976,68.4302579 151.858213,68.9616043 C153.254156,69.2185106 154.639361,69.1998335 156.034564,68.9063351 C156.051967,68.8064694 156.084181,68.6974558 156.120468,68.5629039 C156.213778,68.2267149 156.401138,67.8909071 156.495558,67.5547181 C156.468898,67.8859519 156.44446,68.2164234 156.418541,68.5468949 C156.392251,68.8880391 156.39114,69.1632414 156.432241,69.5036233 C156.454457,69.6907761 156.477785,69.8771666 156.499261,70.0643195 C156.398546,69.8927945 156.241178,69.7285116 156.149349,69.5566055 C155.528025,69.9770323 155.18626,70.2152615 154.576414,70.5468765 C153.932133,70.897931 154.671205,72.1538752 154.937434,72.5899299 C155.522471,73.5458959 156.220813,74.6791044 157.307575,74.0871526 C157.664151,73.8935199 157.872617,73.4448867 158.110705,73.1212762 C158.429513,72.9280247 160.122789,71.4586272 160.391609,71.2985372 C160.771143,71.0744112 162.139315,68.7672093 162.312975,68.1916476 C162.695101,66.9181697 163.144617,65.9484817 163.271621,64.6189723 C162.40036,64.2423797 161.976764,63.8234775 161.352848,63.0683863 C162.230033,63.737715 162.987619,64.0956305 163.933306,64.4039943 C164.278033,64.716551 164.626094,65.0329193 164.987484,65.3645344 C165.511795,65.8451855 165.993155,66.3349847 166.753703,66.349469 C167.576088,66.3639534 168.505853,65.7163512 168.745422,64.9139953 C168.83725,64.6052503 168.929819,64.2961242 169.021278,63.986998 C168.858726,63.9469755 168.699137,63.9016166 168.545102,63.8532085 C168.374775,64.27516 168.388105,64.4386805 168.307755,64.748569 C168.169271,65.279153 167.459821,65.64736 166.716676,65.4624942 C166.452668,65.3969335 166.297152,65.359198 166.203102,65.2890633 C166.277898,65.4983239 166.423046,65.6763287 166.693719,65.7270239 C166.992532,65.7841989 167.213957,65.8085935 167.649403,65.7072032 C167.11102,65.9946029 166.938101,66.0068002 166.556346,65.9191319 C165.553266,65.6896695 165.90651,64.4455415 166.124974,63.685114 C166.262717,63.2059875 166.216432,62.6978923 166.112014,62.2183846 C166.492288,62.4653806 166.793323,62.6834079 167.225806,62.83435 C169.25233,63.5368401 171.656537,64.2526712 173.696391,63.0798213 C175.295987,62.1608284 176.172802,60.1227302 176.369789,58.2553947 C176.54493,56.5908398 176.242414,53.9939512 175.579618,52.3434995 L175.579618,52.3434995 Z M157.380149,52.2954725 C156.833991,53.035317 156.499261,53.419533 156.373737,54.4117099 C156.225256,53.4359232 156.194523,53.254869 156.616639,52.525316 C156.495558,52.589352 156.380772,52.6774015 156.218221,52.8211014 C155.62874,53.3406315 154.859305,55.3794921 154.553087,56.1098074 C154.747852,55.2319806 155.357698,53.037604 155.985687,52.397244 C156.399286,51.9775795 156.493336,51.9863463 157.075782,51.9295525 C157.771161,51.8624672 158.463208,51.788902 159.157477,51.7077135 C158.542818,51.9550907 157.979997,52.1395753 157.380149,52.2954725 L157.380149,52.2954725 Z M162.420355,53.9322022 C162.200411,52.792895 162.521811,52.0522882 164.235822,51.6101348 C162.942816,52.2497325 162.608086,53.0753395 162.420355,53.9322022 L162.420355,53.9322022 Z M165.941687,61.8158726 C165.66472,61.9717698 165.591405,61.9984514 165.460327,62.2942368 C165.336655,62.5732508 165.209279,62.912108 165.102269,63.204844 C165.141889,62.9456506 165.19632,62.6254706 165.235939,62.3662773 C165.320733,61.8177784 165.38479,61.6843701 165.926135,61.5902219 C166.127936,61.5547734 166.491548,61.4789213 166.694459,61.4438539 C166.497472,61.5532488 166.139785,61.7053343 165.941687,61.8158726 L165.941687,61.8158726 Z M164.456137,57.1031278 C164.547965,56.8424098 164.676451,56.60723 164.830486,56.3987318 C165.006738,56.1597403 165.217055,55.9535291 165.446997,55.7770489 C165.440702,55.7534166 165.430335,55.7294031 165.420337,55.7057708 C165.305922,55.4591559 165.015625,55.3535728 164.775685,55.4724968 C164.535746,55.5895149 164.43355,55.8864438 164.547965,56.1334398 C164.571663,56.1837538 164.603507,56.2268256 164.640534,56.2645611 C164.510938,56.1574533 164.399855,56.0221391 164.323578,55.8574751 C164.250263,55.6958604 164.213605,55.5247166 164.211384,55.3573844 C163.935898,55.5826539 163.636714,55.7976319 163.326422,55.9215111 C163.755203,55.5277659 164.338018,54.5965757 164.761985,54.3038397 C165.240753,53.9695566 165.890959,54.0351172 166.449706,53.7686817 C166.259014,53.9466866 166.015372,54.0896241 165.765805,54.2283687 C166.03981,54.3309026 166.276787,54.5397819 166.411568,54.8313744 C166.468961,54.9552536 166.503396,55.0844691 166.516726,55.2121599 C166.892557,55.0863749 167.261353,55.0257694 167.573126,55.0295811 C166.458593,55.3509046 165.273337,56.1052334 164.456137,57.1031278 L164.456137,57.1031278 Z M173.327225,53.9920454 C172.829203,54.1742431 172.507803,53.9867091 172.000154,53.8357671 C172.498176,53.8845564 172.78477,53.9634579 173.231324,53.7362826 C174.064446,53.312044 174.678365,52.619083 175.075302,51.7908078 C174.83277,52.779173 174.342524,53.6196455 173.327225,53.9920454 L173.327225,53.9920454 Z M143.933922,65.9397149 C143.574013,66.3136394 143.214104,66.6887074 142.854565,67.0641566 C142.587966,67.3424082 142.535757,67.3519374 142.589817,67.7456826 C142.662391,68.2857958 142.971943,68.8594516 143.434418,69.3458203 C143.857645,69.7902606 145.317646,70.9501508 145.891945,70.1596111 C146.014136,69.9911355 146.071529,69.7826373 146.122997,69.5680405 L146.122997,69.5444081 C145.320238,68.2938003 144.594865,66.8049632 144.169418,65.290588 C144.090919,65.507853 144.01205,65.722831 143.933922,65.9397149 L143.933922,65.9397149 Z M171.551749,53.4244882 C171.575076,53.4016182 171.601736,53.3791294 171.630618,53.3589275 C171.596552,53.2807884 171.561746,53.2034115 171.52657,53.1275594 C171.468807,53.129084 171.412154,53.1306087 171.356983,53.1328957 C171.439925,53.21599 171.504353,53.3150934 171.551749,53.4244882 L171.551749,53.4244882 Z M144.043894,59.6824827 C144.057594,59.6321687 144.072035,59.582617 144.087957,59.532303 C144.180526,59.2315625 144.27939,58.9395889 144.386029,58.6567632 C144.163493,58.8637367 143.913186,59.0394545 143.60993,59.1644772 C142.825313,59.4877065 142.841235,59.2083114 142.503543,58.5069647 C143.221509,57.9165375 142.889371,57.1915585 143.117832,56.3766241 C143.170781,56.1894713 143.247799,56.0065113 143.357031,55.7652328 C142.604999,56.2313996 141.223126,57.5330838 142.146596,58.5195432 C142.246571,58.8915619 142.323959,59.1812485 142.461331,59.4755092 C142.744223,60.08347 143.482554,59.9275729 144.043894,59.6824827 L144.043894,59.6824827 Z" transform="rotate(-2 159.129 60.693)"/>
      <path fill="#2D8FE2" d="M193.895142,100.558995 C192.83224,100.563331 191.817118,100.640024 190.92394,100.773337 C188.292773,101.166338 187.814965,101.98889 187.814965,103.50576 L187.814965,105.508926 L194.032915,105.508926 L194.032915,106.176607 L185.481475,106.176607 C183.674452,106.176607 182.092117,107.094931 181.597161,108.841506 C181.026283,110.843681 181.000927,112.093058 181.597161,114.183571 C182.03906,115.739717 183.094488,116.848346 184.901803,116.848346 L187.03948,116.848346 L187.03948,114.446976 C187.03948,112.712047 188.815283,111.181919 190.92394,111.181919 L197.134562,111.181919 C198.863464,111.181919 200.243537,109.978384 200.243537,108.510701 L200.243537,103.50576 C200.243537,102.081193 198.821985,101.011219 197.134562,100.773337 C196.066529,100.623174 194.958338,100.554906 193.895142,100.558995 M190.53246,102.170275 C191.174862,102.170275 191.699425,102.621012 191.699425,103.175079 C191.699425,103.72704 191.174862,104.173565 190.53246,104.173565 C189.888152,104.173565 189.365935,103.72704 189.365935,103.175079 C189.365935,102.621012 189.888152,102.170275 190.53246,102.170275"/>
      <path fill="#2D8FE2" d="M201.019168 106.176607L201.019168 108.510701C201.019168 110.32034 199.204232 111.843405 197.134562 111.843405L190.92394 111.843405C189.222739 111.843405 187.814965 113.074074 187.814965 114.514376L187.814965 119.519193C187.814965 120.94376 189.28034 121.781675 190.92394 122.190287 192.892186 122.679432 194.779673 122.767895 197.134562 122.190287 198.700188 121.807198 200.243537 121.036063 200.243537 119.519193L200.243537 117.516027 194.032768 117.516027 194.032768 116.848346 203.352512 116.848346C205.159681 116.848346 205.833009 115.782833 206.461487 114.183571 207.110632 112.536856 207.083077 110.953825 206.461487 108.841506 206.014898 107.320671 205.162026 106.176607 203.352512 106.176607L201.019168 106.176607 201.019168 106.176607zM197.526042 118.851636C198.170496 118.851636 198.692714 119.297913 198.692714 119.849998 198.692714 120.404189 198.170496 120.854678 197.526042 120.854678 196.883786 120.854678 196.359223 120.404189 196.359223 119.849998 196.359223 119.297913 196.883786 118.851636 197.526042 118.851636L197.526042 118.851636zM110.484316 74.693877C108.922389 75.3067936 107.091048 75.7362059 105.102361 75.9221816 105.3452 76.325026 105.765491 77.0224658 106.217421 77.7729179 108.104585 77.3337434 109.825545 76.7006845 111.311682 75.9162502 111.206785 75.7570896 111.128463 75.6363598 111.085155 75.5664181 110.922325 75.3041986 110.781572 75.002436 110.484316 74.693877L110.484316 74.693877zM96.0104786 78.192568C97.284993 78.3727358 98.6150495 78.4688748 99.9833526 78.4688748 100.579691 78.4688748 101.168578 78.4504626 101.749309 78.415121L101.749309 76.000279C99.6523501 75.9046344 97.6988165 75.541333 96.0104786 74.9746323L96.0104786 78.192568 96.0104786 78.192568zM99.9833526 58.4389829C90.601245 58.4389829 82.9954989 62.9226655 82.9954989 68.453867 82.9954989 73.0550665 88.2591983 76.9311461 95.430029 78.1044613L95.430029 74.7682673C92.1406739 73.5267404 89.9933759 71.4831084 89.9933759 69.172314 89.9933759 65.3869362 95.7544227 62.3183989 102.860993 62.3183989 109.967564 62.3183989 115.72847 65.3869362 115.72847 69.172314 115.72847 71.3064006 113.897129 73.2126207 111.025957 74.469594 111.235188 74.7091999 111.37088 74.9410208 111.491385 75.1486215 111.527241 75.2100368 111.560848 75.2682391 111.594314 75.3222401 111.63481 75.387486 111.707085 75.4990714 111.803827 75.6458748 114.989972 73.8254137 116.971206 71.2761255 116.971206 68.453867 116.971206 62.9226655 109.36532 58.4389829 99.9833526 58.4389829L99.9833526 58.4389829zM102.860993 76.0261056C102.682837 76.0261056 102.505665 76.0236341 102.329477 76.019927L102.329477 78.3733537C103.472518 78.2803041 104.579001 78.1201549 105.637534 77.8999498 105.129781 77.0568187 104.672086 76.2970987 104.475931 75.9724754 103.946946 76.0078169 103.407977 76.0261056 102.860993 76.0261056L102.860993 76.0261056z"/>
      <path fill="#2D8FE2" d="M111.085155,75.5664181 C110.692704,74.9341007 110.431024,74.0719396 107.782301,73.4397458 C111.052392,73.4397458 112.883592,71.370658 112.883592,68.7842983 C112.883592,66.197815 109.973329,64.1288507 107.389991,64.1288507 L96.0104786,64.1288507 L96.0104786,81.0263187 L101.749309,81.0263187 L101.749309,74.3881601 L103.106222,74.3881601 C104.021893,74.3881601 104.64312,75.164068 104.9048,75.5950868 C105.166481,76.0261056 108.142129,80.9689813 108.142129,80.9689813 L114.714793,80.9689813 C114.714793,80.9689813 111.477464,76.1984884 111.085155,75.5664181 M106.964918,69.3191174 C106.964918,70.0714231 106.271135,70.6810033 105.415084,70.6810033 L101.765339,70.6810033 L101.765339,67.7785466 L105.536433,67.7785466 C106.325411,67.7785466 106.964918,68.3406752 106.964918,69.0339135 L106.964918,69.3191174"/>
      <path fill="#2D8FE2" d="M78.4710952,111.277175 C78.1086072,110.756287 77.4267318,110.491442 76.7575656,110.611992 L67.8734776,112.213677 L62.8249845,106.145507 C62.4398409,105.682569 61.7907516,105.46455 61.163581,105.587093 C60.5364104,105.709469 60.0455412,106.150322 59.9075821,106.715379 L57.932317,114.801678 L49.0981448,118.076945 C48.5002605,118.298285 48.1024078,118.815188 48.0812258,119.397181 C48.0600439,119.97934 48.4195848,120.51866 48.9994183,120.775201 L55.4429747,123.623397 L58.716971,121.773307 L53.7204197,119.564556 L59.9761012,117.245551 C60.4736012,117.060907 60.8394047,116.668539 60.9552609,116.194808 L62.3453509,110.503398 L65.8669001,114.736588 C66.2465179,115.192551 66.8827138,115.411733 67.502701,115.299817 L73.1553408,114.28079 L69.2917489,118.876459 C68.9316553,119.304527 68.8572421,119.874897 69.0972431,120.366893 L71.6350277,125.566142 L66.5417761,124.218176 L66.730572,127.315276 L74.097294,129.30335 C74.7100977,129.465578 75.3718962,129.292723 75.7933254,128.860172 C76.2149387,128.427787 76.320296,127.813913 76.0627969,127.286716 L72.492253,119.971038 L78.3883934,112.957731 C78.800613,112.467396 78.833399,111.798561 78.4710952,111.277175" transform="rotate(-6 63.401 117.458)"/>
    </g>
    <path fill="#2D8FE2" d="M280,203.3875 C280,203.3875 284.439437,194.260123 295.646243,186.129416 C306.853049,177.998708 321.70065,177.750382 321.70065,177.750382 L320.474572,173 L333.732194,179.946489 L320.98961,186.18479 L321.70065,181.582022 C321.70065,181.582022 310.291013,180.559588 298.037872,187.745837 C285.784732,194.932086 280,203.3875 280,203.3875 Z" transform="rotate(87 306.866 188.194)"/>
    <path fill="#2D8FE2" d="M47,203.3875 C47,203.3875 51.4394367,194.260123 62.646243,186.129416 C73.8530493,177.998708 88.7006497,177.750382 88.7006497,177.750382 L87.4745723,173 L100.732194,179.946489 L87.9896101,186.18479 L88.7006497,181.582022 C88.7006497,181.582022 77.2910127,180.559588 65.0378722,187.745837 C52.7847316,194.932086 47,203.3875 47,203.3875 Z" transform="rotate(-45 73.866 188.194)"/>
    <g transform="translate(0 234)">
      <g fill-rule="nonzero">
        <use fill="#FFF" xlink:href="#software-engineers-il-d"/>
        <rect width="144.941" height="113.216" x="1.569" y=".661" fill="url(#software-engineers-il-e)" fill-opacity=".12" fill-rule="evenodd" stroke="url(#software-engineers-il-f)" stroke-linejoin="square" stroke-width="1.322" rx="3.559"/>
      </g>
      <path fill="#2D8FE2" d="M0.908515353,3.56765057 C0.908515353,1.59729157 2.50127209,0 4.46961561,0 L143.610752,0 C145.577494,0 147.171853,1.58850738 147.171853,3.56765057 L147.171853,14.5840115 L0.908515353,14.5840115 L0.908515353,3.56765057 Z"/>
      <ellipse cx="8.161" cy="7.292" fill="#FFF" rx="2.359" ry="2.371"/>
      <ellipse cx="17.598" cy="7.292" fill="#FFF" rx="2.359" ry="2.371"/>
      <ellipse cx="27.034" cy="7.292" fill="#FFF" rx="2.359" ry="2.371"/>
      <g transform="translate(29 31)">
        <g transform="translate(65)">
          <polygon fill="#2D8FE2" points="0 .082 15.369 .082 18.662 .082 24.151 5.493 24.151 28.219 0 28.219"/>
          <path fill="#FFF" fill-rule="nonzero" d="M4.72982537,16.8666179 C4.93516039,16.8666179 5.0927265,16.8074414 5.2025237,16.6890886 C5.3123209,16.5707358 5.3672195,16.4103178 5.3672195,16.2078347 C5.3672195,16.0082034 5.31303387,15.8506373 5.20466261,15.7351363 C5.09629135,15.6196354 4.93801227,15.5618849 4.72982537,15.5618849 C4.52449035,15.5618849 4.36763721,15.6174965 4.25926594,15.7287196 C4.15089468,15.8399428 4.09670905,15.9996478 4.09670905,16.2078347 C4.09670905,16.4131697 4.15089468,16.5743006 4.25926594,16.6912275 C4.36763721,16.8081544 4.52449035,16.8666179 4.72982537,16.8666179 Z M8.56274578,16.8281175 C8.85363707,16.8281175 9.10103725,16.8053025 9.30494633,16.7596725 C9.50885542,16.7140425 9.70064403,16.6384678 9.88031218,16.5329485 L9.88031218,16.5329485 L9.88031218,15.6559968 C9.48104963,15.8784431 9.05754615,15.9896662 8.60980173,15.9896662 C8.21624293,15.9896662 7.917509,15.856341 7.71359991,15.5896907 C7.50969083,15.3230404 7.40773628,14.9244908 7.40773628,14.394042 C7.40773628,13.3074775 7.81698039,12.7641952 8.6354686,12.7641952 C8.91210051,12.7641952 9.26288117,12.8468996 9.68781059,13.0123084 L9.68781059,13.0123084 L9.99153531,12.2038017 C9.59227277,12.0184298 9.14310241,11.9257439 8.64402423,11.9257439 C7.9082404,11.9257439 7.345708,12.1396345 6.95642702,12.5674158 C6.56714604,12.9951971 6.37250555,13.6069244 6.37250555,14.4025976 C6.37250555,15.1840114 6.55859041,15.7836182 6.93076014,16.2014179 C7.30292987,16.6192177 7.84692508,16.8281175 8.56274578,16.8281175 Z M12.2202759,16.8281175 C12.8476884,16.8281175 13.3296554,16.7047739 13.6661766,16.4580867 C14.0026979,16.2113995 14.1709586,15.857054 14.1709586,15.3950502 C14.1709586,15.1669002 14.1281804,14.9708338 14.0426242,14.8068509 C13.9570679,14.6428681 13.8258817,14.4981354 13.6490654,14.3726529 C13.4722491,14.2471704 13.1884875,14.1088544 12.7977806,13.957705 C12.3329249,13.7780369 12.0313391,13.6368691 11.8930232,13.5342016 C11.7547072,13.4315341 11.6855492,13.3060515 11.6855492,13.157754 C11.6855492,12.8554552 11.9507737,12.7043058 12.4812225,12.7043058 C12.8291512,12.7043058 13.2583585,12.8098252 13.7688442,13.020864 L13.7688442,13.020864 L14.0939579,12.2636911 C13.5977316,12.038393 13.0715606,11.9257439 12.515445,11.9257439 C11.9536255,11.9257439 11.5094459,12.03768 11.1829062,12.2615522 C10.8563665,12.4854244 10.6930966,12.7998437 10.6930966,13.20481 C10.6930966,13.5413313 10.7893474,13.8151113 10.981849,14.0261501 C11.1743506,14.2371888 11.5429555,14.4482276 12.0876637,14.6592664 C12.3671474,14.7676376 12.5853159,14.8646014 12.742169,14.9501577 C12.8990222,15.0357139 13.0116713,15.1184183 13.0801163,15.1982708 C13.1485613,15.2781233 13.1827838,15.377939 13.1827838,15.4977177 C13.1827838,15.8713134 12.8733553,16.0581112 12.2544984,16.0581112 C11.7753833,16.0581112 11.257768,15.9297768 10.7016523,15.673108 L10.7016523,15.673108 L10.7016523,16.5415041 C11.0838036,16.7325797 11.5900114,16.8281175 12.2202759,16.8281175 Z M17.4220964,16.7425613 L19.2273335,12.0113001 L18.1578803,12.0113001 L17.1953723,14.7619339 C17.0214079,15.3037902 16.9215923,15.6773859 16.8959254,15.8827209 L16.8959254,15.8827209 L16.8617029,15.8827209 C16.8274804,15.5975333 16.7276648,15.2239377 16.562256,14.7619339 L16.562256,14.7619339 L15.5997481,12.0113001 L14.5388505,12.0113001 L16.3355319,16.7425613 L17.4220964,16.7425613 Z"/>
        </g>
        <g transform="translate(65 40)">
          <polygon fill="#2D8FE2" points="0 .082 15.369 .082 18.662 .082 24.151 5.493 24.151 28.219 0 28.219"/>
          <path fill="#FFF" fill-rule="nonzero" d="M5.12338416,16.8666179 C5.32871919,16.8666179 5.4862853,16.8074414 5.5960825,16.6890886 C5.70587969,16.5707358 5.76077829,16.4103178 5.76077829,16.2078347 C5.76077829,16.0082034 5.70659266,15.8506373 5.5982214,15.7351363 C5.48985014,15.6196354 5.33157106,15.5618849 5.12338416,15.5618849 C4.91804914,15.5618849 4.761196,15.6174965 4.65282474,15.7287196 C4.54445348,15.8399428 4.49026784,15.9996478 4.49026784,16.2078347 C4.49026784,16.4131697 4.54445348,16.5743006 4.65282474,16.6912275 C4.761196,16.8081544 4.91804914,16.8666179 5.12338416,16.8666179 Z M8.57130141,16.8281175 C8.75952518,16.8281175 8.94133223,16.8117193 9.11672256,16.7789227 C9.29211289,16.7461261 9.43541963,16.7054869 9.54664277,16.657005 L9.54664277,16.657005 L9.54664277,15.8998321 C9.30138149,15.9768328 9.05612021,16.0153331 8.81085894,16.0153331 C8.61407954,16.0153331 8.45508749,15.9575826 8.33388279,15.8420817 C8.21267809,15.7265807 8.15207574,15.5476255 8.15207574,15.3052161 L8.15207574,15.3052161 L8.15207574,12.7727509 L9.49958682,12.7727509 L9.49958682,12.0113001 L8.15207574,12.0113001 L8.15207574,10.9589582 L7.53179286,10.9589582 L7.18956782,11.9599664 L6.49656212,12.3278583 L6.49656212,12.7727509 L7.14251188,12.7727509 L7.14251188,15.3223274 C7.14251188,16.3261875 7.61877506,16.8281175 8.57130141,16.8281175 Z M11.8566618,18.8472453 C12.6922612,18.8472453 13.3310813,18.7017996 13.773122,18.4109083 C14.2151626,18.1200171 14.436183,17.7064951 14.436183,17.1703426 C14.436183,16.7511169 14.3007189,16.4302809 14.0297907,16.2078347 C13.7588626,15.9853884 13.3624519,15.8741653 12.8405587,15.8741653 L12.8405587,15.8741653 L12.0149408,15.8741653 C11.7440127,15.8741653 11.5579278,15.8470724 11.4566863,15.7928868 C11.3554447,15.7387012 11.3048239,15.6574227 11.3048239,15.5490515 C11.3048239,15.3693833 11.4131952,15.2125302 11.6299377,15.078492 C11.7525683,15.101307 11.8894583,15.1127145 12.0406077,15.1127145 C12.6309459,15.1127145 13.0943756,14.9729727 13.4308969,14.6934889 C13.7674182,14.4140051 13.9356789,14.0304279 13.9356789,13.5427572 C13.9356789,13.3802003 13.9114379,13.226199 13.862956,13.0807534 C13.8144742,12.9353077 13.7531588,12.8126771 13.6790101,12.7128615 L13.6790101,12.7128615 L14.4875167,12.563138 L14.4875167,12.0113001 L12.8491144,12.0113001 C12.7749656,11.991337 12.6644554,11.9720869 12.5175839,11.9535497 C12.3707123,11.9350125 12.2302574,11.9257439 12.0962193,11.9257439 C11.4973255,11.9257439 11.0360346,12.0669117 10.7123468,12.3492474 C10.388659,12.631583 10.226815,13.0294196 10.226815,13.5427572 C10.226815,13.8621672 10.3031027,14.140938 10.455678,14.3790696 C10.6082533,14.6172012 10.8071717,14.7890267 11.0524329,14.8945461 C10.8556535,15.0143248 10.707356,15.1355295 10.6075404,15.2581602 C10.5077247,15.3807908 10.4578169,15.5305143 10.4578169,15.7073305 C10.4578169,15.8470724 10.501308,15.9803976 10.5882902,16.1073061 C10.6752724,16.2342145 10.7857826,16.3261875 10.9198207,16.383225 C10.5890032,16.4602256 10.3316214,16.5978286 10.1476755,16.7960339 C9.96372953,16.9942393 9.87175655,17.2387876 9.87175655,17.5296789 C9.87175655,17.9517564 10.0414431,18.2768702 10.3808163,18.5050202 C10.7201895,18.7331703 11.2121379,18.8472453 11.8566618,18.8472453 Z M12.0876637,14.4667648 C11.8024761,14.4667648 11.5835947,14.3869123 11.4310194,14.2272073 C11.278444,14.0675022 11.2021564,13.8393522 11.2021564,13.5427572 C11.2021564,13.226199 11.2770181,12.9852156 11.4267416,12.8198068 C11.576465,12.654398 11.7967724,12.5716936 12.0876637,12.5716936 C12.3814068,12.5716936 12.6002883,12.655111 12.744308,12.8219457 C12.8883277,12.9887804 12.9603375,13.226199 12.9603375,13.5342016 C12.9603375,14.1559104 12.6694462,14.4667648 12.0876637,14.4667648 Z M11.8866065,18.1542396 C11.5329739,18.1542396 11.2584809,18.0957761 11.0631275,17.9788492 C10.867774,17.8619223 10.7700973,17.6950876 10.7700973,17.4783451 C10.7700973,17.2473432 10.8549406,17.0641102 11.0246271,16.9286461 C11.1943137,16.7931821 11.4231767,16.72545 11.7112161,16.72545 L11.7112161,16.72545 L12.4726668,16.72545 C12.8719294,16.72545 13.1449964,16.7689411 13.291868,16.8559233 C13.4387396,16.9429055 13.5121754,17.0890641 13.5121754,17.2943992 C13.5121754,17.5539198 13.3781372,17.7621067 13.110061,17.9189599 C12.8419847,18.075813 12.4341665,18.1542396 11.8866065,18.1542396 Z M18.5257722,16.7425613 L18.5257722,15.972555 L16.1173635,15.972555 L18.4573272,12.7128615 L18.4573272,12.0113001 L15.0821327,12.0113001 L15.0821327,12.7813065 L17.3279845,12.7813065 L14.9366871,16.1222784 L14.9366871,16.7425613 L18.5257722,16.7425613 Z"/>
        </g>
        <polygon fill="#2D8FE2" points="0 .082 15.369 .082 18.662 .082 24.151 5.493 24.151 28.219 0 28.219"/>
        <path fill="#FFF" fill-rule="nonzero" d="M5.60891593,16.8666179 C5.81425096,16.8666179 5.97181707,16.8074414 6.08161427,16.6890886 C6.19141147,16.5707358 6.24631007,16.4103178 6.24631007,16.2078347 C6.24631007,16.0082034 6.19212443,15.8506373 6.08375317,15.7351363 C5.97538191,15.6196354 5.81710283,15.5618849 5.60891593,15.5618849 C5.40358091,15.5618849 5.24672777,15.6174965 5.13835651,15.7287196 C5.02998525,15.8399428 4.97579962,15.9996478 4.97579962,16.2078347 C4.97579962,16.4131697 5.02998525,16.5743006 5.13835651,16.6912275 C5.24672777,16.8081544 5.40358091,16.8666179 5.60891593,16.8666179 Z M8.06010276,16.7425613 L9.22366789,14.9715467 L10.3915108,16.7425613 L11.5294091,16.7425613 L9.85678421,14.325597 L11.4481306,12.0113001 L10.3102324,12.0113001 L9.22366789,13.6668138 L8.14565902,12.0113001 L6.99920515,12.0113001 L8.58627376,14.325597 L6.92220451,16.7425613 L8.06010276,16.7425613 Z M13.3645908,16.7425613 L13.3645908,10.0862843 L12.3593048,10.0862843 L12.3593048,16.7425613 L13.3645908,16.7425613 Z M16.0296683,16.8281175 C16.6570809,16.8281175 17.1390478,16.7047739 17.4755691,16.4580867 C17.8120904,16.2113995 17.980351,15.857054 17.980351,15.3950502 C17.980351,15.1669002 17.9375729,14.9708338 17.8520166,14.8068509 C17.7664604,14.6428681 17.6352741,14.4981354 17.4584578,14.3726529 C17.2816416,14.2471704 16.99788,14.1088544 16.6071731,13.957705 C16.1423174,13.7780369 15.8407316,13.6368691 15.7024156,13.5342016 C15.5640997,13.4315341 15.4949417,13.3060515 15.4949417,13.157754 C15.4949417,12.8554552 15.7601661,12.7043058 16.2906149,12.7043058 C16.6385437,12.7043058 17.0677509,12.8098252 17.5782366,13.020864 L17.5782366,13.020864 L17.9033504,12.2636911 C17.4071241,12.038393 16.8809531,11.9257439 16.3248374,11.9257439 C15.763018,11.9257439 15.3188384,12.03768 14.9922987,12.2615522 C14.6657589,12.4854244 14.5024891,12.7998437 14.5024891,13.20481 C14.5024891,13.5413313 14.5987399,13.8151113 14.7912415,14.0261501 C14.983743,14.2371888 15.3523479,14.4482276 15.8970561,14.6592664 C16.1765399,14.7676376 16.3947083,14.8646014 16.5515615,14.9501577 C16.7084146,15.0357139 16.8210637,15.1184183 16.8895087,15.1982708 C16.9579537,15.2781233 16.9921762,15.377939 16.9921762,15.4977177 C16.9921762,15.8713134 16.6827478,16.0581112 16.0638908,16.0581112 C15.5847758,16.0581112 15.0671604,15.9297768 14.5110447,15.673108 L14.5110447,15.673108 L14.5110447,16.5415041 C14.893196,16.7325797 15.3994039,16.8281175 16.0296683,16.8281175 Z"/>
        <g transform="translate(0 40)">
          <polygon fill="#2D8FE2" points="0 .082 15.369 .082 18.662 .082 24.151 5.493 24.151 28.219 0 28.219"/>
          <path fill="#FFF" fill-rule="nonzero" d="M3.19622942,16.8666179 C3.40156445,16.8666179 3.55913056,16.8074414 3.66892776,16.6890886 C3.77872496,16.5707358 3.83362355,16.4103178 3.83362355,16.2078347 C3.83362355,16.0082034 3.77943792,15.8506373 3.67106666,15.7351363 C3.5626954,15.6196354 3.40441632,15.5618849 3.19622942,15.5618849 C2.9908944,15.5618849 2.83404126,15.6174965 2.72567,15.7287196 C2.61729874,15.8399428 2.56311311,15.9996478 2.56311311,16.2078347 C2.56311311,16.4131697 2.61729874,16.5743006 2.72567,16.6912275 C2.83404126,16.8081544 2.9908944,16.8666179 3.19622942,16.8666179 Z M5.64741625,16.7425613 L6.81098138,14.9715467 L7.97882432,16.7425613 L9.11672256,16.7425613 L7.44409769,14.325597 L9.03544412,12.0113001 L7.89754587,12.0113001 L6.81098138,13.6668138 L5.73297251,12.0113001 L4.58651864,12.0113001 L6.17358725,14.325597 L4.509518,16.7425613 L5.64741625,16.7425613 Z M10.9519043,16.7425613 L10.9519043,10.0862843 L9.94661828,10.0862843 L9.94661828,16.7425613 L10.9519043,16.7425613 Z M13.6169818,16.8281175 C14.2443944,16.8281175 14.7263613,16.7047739 15.0628826,16.4580867 C15.3994039,16.2113995 15.5676645,15.857054 15.5676645,15.3950502 C15.5676645,15.1669002 15.5248864,14.9708338 15.4393301,14.8068509 C15.3537739,14.6428681 15.2225876,14.4981354 15.0457713,14.3726529 C14.8689551,14.2471704 14.5851935,14.1088544 14.1944865,13.957705 C13.7296309,13.7780369 13.4280451,13.6368691 13.2897291,13.5342016 C13.1514132,13.4315341 13.0822552,13.3060515 13.0822552,13.157754 C13.0822552,12.8554552 13.3474796,12.7043058 13.8779284,12.7043058 C14.2258572,12.7043058 14.6550644,12.8098252 15.1655501,13.020864 L15.1655501,13.020864 L15.4906639,12.2636911 C14.9944376,12.038393 14.4682666,11.9257439 13.9121509,11.9257439 C13.3503315,11.9257439 12.9061519,12.03768 12.5796122,12.2615522 C12.2530724,12.4854244 12.0898026,12.7998437 12.0898026,13.20481 C12.0898026,13.5413313 12.1860534,13.8151113 12.3785549,14.0261501 C12.5710565,14.2371888 12.9396614,14.4482276 13.4843696,14.6592664 C13.7638534,14.7676376 13.9820218,14.8646014 14.138875,14.9501577 C14.2957281,15.0357139 14.4083772,15.1184183 14.4768222,15.1982708 C14.5452672,15.2781233 14.5794897,15.377939 14.5794897,15.4977177 C14.5794897,15.8713134 14.2700612,16.0581112 13.6512043,16.0581112 C13.1720893,16.0581112 12.6544739,15.9297768 12.0983582,15.673108 L12.0983582,15.673108 L12.0983582,16.5415041 C12.4805095,16.7325797 12.9867174,16.8281175 13.6169818,16.8281175 Z M17.1804,16.7425613 L18.3439651,14.9715467 L19.5118081,16.7425613 L20.6497063,16.7425613 L18.9770814,14.325597 L20.5684279,12.0113001 L19.4305296,12.0113001 L18.3439651,13.6668138 L17.2659563,12.0113001 L16.1195024,12.0113001 L17.706571,14.325597 L16.0425017,16.7425613 L17.1804,16.7425613 Z"/>
        </g>
      </g>
    </g>
    <g transform="translate(233.909 235)">
      <g fill-rule="nonzero">
        <use fill="#FFF" xlink:href="#software-engineers-il-g"/>
        <path fill="url(#software-engineers-il-h)" fill-opacity=".12" fill-rule="evenodd" stroke="url(#software-engineers-il-i)" stroke-linejoin="square" stroke-width="1.322" d="M0.660931765,3.55938389 L0.660931765,110.659188 C0.660931765,112.260366 1.95902396,113.55764 3.56110026,113.55764 L142.702237,113.55764 C144.30503,113.55764 145.602405,112.260487 145.602405,110.659188 L145.602405,3.55938389 C145.602405,1.95820581 144.304313,0.660931765 142.702237,0.660931765 L3.56110026,0.660931765 C1.95830727,0.660931765 0.660931765,1.95808508 0.660931765,3.55938389 Z"/>
      </g>
      <path fill="#2D8FE2" fill-rule="nonzero" d="M27.6537001,31.0596667 L27.6537001,27.5496666 L28.997372,27.5496666 C30.0256924,27.5496666 30.8300674,27.2663072 31.4104971,26.6995884 C31.9909268,26.1328697 32.2811417,25.3604868 32.2811417,24.3824399 C32.2811417,23.404393 31.9874991,22.6091586 31.4002139,21.9967367 C30.8129287,21.3843148 30.0256924,21.0781039 29.0385048,21.0781039 L29.0385048,21.0781039 L25.6381922,21.0781039 L25.6381922,31.0596667 L27.6537001,31.0596667 Z M29.0385048,25.8700767 L27.6537001,25.8700767 L27.6537001,22.7576938 L29.0590713,22.7576938 C29.4201259,22.7622641 29.7080556,22.9119418 29.9228603,23.206727 C30.137665,23.5015122 30.2450674,23.8979868 30.2450674,24.3961509 C30.2450674,24.8760337 30.1399502,25.2416587 29.9297158,25.4930259 C29.7194814,25.7443931 29.4224111,25.8700767 29.0385048,25.8700767 L29.0385048,25.8700767 Z M35.6471769,31.0596667 L35.6471769,27.4125572 L36.6480754,27.4125572 L38.1494231,31.0596667 L40.3157513,31.0596667 L40.3157513,30.9636901 L38.5676067,26.8778306 C39.5319426,26.3476743 40.0141106,25.4199009 40.0141106,24.0945102 C40.0141106,23.1301743 39.7387493,22.3863559 39.1880266,21.8630551 C38.6373039,21.3397543 37.8569231,21.0781039 36.846884,21.0781039 L36.846884,21.0781039 L33.631669,21.0781039 L33.631669,31.0596667 L35.6471769,31.0596667 Z M36.7920402,25.7329673 L35.6471769,25.7329673 L35.6471769,22.7576938 L36.8263176,22.7576938 C37.607841,22.7576938 37.9986028,23.258143 37.9986028,24.2590415 C37.9986028,24.7069321 37.8980559,25.0645591 37.6969621,25.3319224 C37.4958684,25.5992857 37.1942277,25.7329673 36.7920402,25.7329673 L36.7920402,25.7329673 Z M47.1300874,31.0596667 L47.1300874,29.3869322 L43.4144232,29.3869322 L43.4144232,26.7407212 L46.554228,26.7407212 L46.554228,25.1159751 L43.4144232,25.1159751 L43.4144232,22.7576938 L47.1163765,22.7576938 L47.1163765,21.0781039 L41.3989154,21.0781039 L41.3989154,31.0596667 L47.1300874,31.0596667 Z M50.8731734,31.0596667 C52.0888766,31.0596667 53.0429294,30.6860436 53.7353317,29.9387975 C54.4277341,29.1915514 54.7739353,28.1620885 54.7739353,26.8504087 L54.7739353,26.8504087 L54.7739353,25.2325181 C54.7602243,23.9436899 54.4071677,22.9290805 53.7147653,22.1886899 C53.022363,21.4482992 52.0934469,21.0781039 50.9280172,21.0781039 L50.9280172,21.0781039 L48.2886616,21.0781039 L48.2886616,31.0596667 L50.8731734,31.0596667 Z M50.9074508,29.3869322 L50.3041695,29.3869322 L50.3041695,22.7576938 L51.0377047,22.7576938 C51.6638375,22.775975 52.1071578,22.9690707 52.3676657,23.3369809 C52.6281735,23.7048911 52.7584274,24.355018 52.7584274,25.2873618 L52.7584274,25.2873618 L52.7584274,27.0217955 C52.7447165,27.8901549 52.6007516,28.5014342 52.3265329,28.8556334 C52.0523141,29.2098326 51.5792867,29.3869322 50.9074508,29.3869322 L50.9074508,29.3869322 Z M58.3250682,31.0596667 L58.3250682,21.0781039 L56.3095603,21.0781039 L56.3095603,31.0596667 L58.3250682,31.0596667 Z M63.3295605,31.196776 C64.403584,31.196776 65.2353809,30.904276 65.8249512,30.319276 C66.4145215,29.734276 66.7344434,28.8727721 66.7847169,27.7347642 L66.7847169,27.7347642 L64.769209,27.7347642 C64.7417871,28.4111705 64.6275293,28.878485 64.4264355,29.1367076 C64.2253418,29.3949303 63.8597168,29.5240416 63.3295605,29.5240416 C62.7902636,29.5240416 62.4097851,29.338944 62.1881249,28.9687486 C61.9664648,28.5985533 61.8556347,27.9175767 61.8556347,26.9258189 L61.8556347,26.9258189 L61.8556347,25.0405649 C61.8693456,24.1767758 61.9881738,23.5563559 62.2121191,23.1793051 C62.4360644,22.8022543 62.8176855,22.6137289 63.3569824,22.6137289 C63.8871387,22.6137289 64.2516211,22.7474106 64.4504297,23.0147739 C64.6492383,23.2821371 64.7577832,23.7677329 64.7760645,24.471561 L64.7760645,24.471561 L66.7984278,24.471561 C66.7207325,23.3335532 66.399668,22.4606235 65.8352344,21.8527719 C65.2708008,21.2449203 64.4447168,20.9409945 63.3569824,20.9409945 C62.2509667,20.9409945 61.3871776,21.3123324 60.7656151,22.0550082 C60.1440526,22.797684 59.8332713,23.8545688 59.8332713,25.2256626 L59.8332713,25.2256626 L59.8332713,26.9052525 C59.8332713,28.2809166 60.1337694,29.3400865 60.7347655,30.0827623 C61.3357616,30.8254381 62.2006933,31.196776 63.3295605,31.196776 Z M72.0222951,31.0596667 L72.0222951,22.7576938 L74.490264,22.7576938 L74.490264,21.0781039 L67.5730958,21.0781039 L67.5730958,22.7576938 L69.9999318,22.7576938 L69.9999318,31.0596667 L72.0222951,31.0596667 Z M77.7534672,31.0596667 L77.7534672,21.0781039 L75.7379593,21.0781039 L75.7379593,31.0596667 L77.7534672,31.0596667 Z M83.745147,31.0596667 L86.624444,21.0781039 L84.3758502,21.0781039 L82.6962603,28.3174791 L81.0235259,21.0781039 L78.788643,21.0781039 L81.6473735,31.0596667 L83.745147,31.0596667 Z M93.2948153,31.0596667 L93.2948153,29.3869322 L89.5791511,29.3869322 L89.5791511,26.7407212 L92.7189559,26.7407212 L92.7189559,25.1159751 L89.5791511,25.1159751 L89.5791511,22.7576938 L93.2811043,22.7576938 L93.2811043,21.0781039 L87.5636432,21.0781039 L87.5636432,31.0596667 L93.2948153,31.0596667 Z M99.1699522,31.0596667 L99.7046787,29.0167369 L102.453722,29.0167369 L102.988448,31.0596667 L105.141066,31.0596667 L102.001261,21.0781039 L100.15714,21.0781039 L97.0379013,31.0596667 L99.1699522,31.0596667 Z M102.008116,27.337147 L100.143429,27.337147 L101.075773,23.7791586 L102.008116,27.337147 Z M108.088917,31.0596667 L108.088917,27.5496666 L109.432589,27.5496666 C110.46091,27.5496666 111.265285,27.2663072 111.845714,26.6995884 C112.426144,26.1328697 112.716359,25.3604868 112.716359,24.3824399 C112.716359,23.404393 112.422716,22.6091586 111.835431,21.9967367 C111.248146,21.3843148 110.46091,21.0781039 109.473722,21.0781039 L109.473722,21.0781039 L106.073409,21.0781039 L106.073409,31.0596667 L108.088917,31.0596667 Z M109.473722,25.8700767 L108.088917,25.8700767 L108.088917,22.7576938 L109.494288,22.7576938 C109.855343,22.7622641 110.143273,22.9119418 110.358077,23.206727 C110.572882,23.5015122 110.680285,23.8979868 110.680285,24.3961509 C110.680285,24.8760337 110.575167,25.2416587 110.364933,25.4930259 C110.154699,25.7443931 109.857628,25.8700767 109.473722,25.8700767 L109.473722,25.8700767 Z M116.075539,31.0596667 L116.075539,27.5496666 L117.41921,27.5496666 C118.447531,27.5496666 119.251906,27.2663072 119.832336,26.6995884 C120.412765,26.1328697 120.70298,25.3604868 120.70298,24.3824399 C120.70298,23.404393 120.409338,22.6091586 119.822052,21.9967367 C119.234767,21.3843148 118.447531,21.0781039 117.460343,21.0781039 L117.460343,21.0781039 L114.060031,21.0781039 L114.060031,31.0596667 L116.075539,31.0596667 Z M117.460343,25.8700767 L116.075539,25.8700767 L116.075539,22.7576938 L117.48091,22.7576938 C117.841964,22.7622641 118.129894,22.9119418 118.344699,23.206727 C118.559503,23.5015122 118.666906,23.8979868 118.666906,24.3961509 C118.666906,24.8760337 118.561789,25.2416587 118.351554,25.4930259 C118.14132,25.7443931 117.84425,25.8700767 117.460343,25.8700767 L117.460343,25.8700767 Z"/>
      <path fill="#2D8FE2" d="M26.8714846,54.881481 C26.8714846,55.3402848 27.2399597,55.7130629 27.6651232,55.7130629 L33.4473474,55.7130629 L33.8158224,55.7130629 L39.9381774,55.7130629 C40.3916851,55.7130629 40.7601602,55.3402848 40.731816,54.881481 C40.7034717,52.5014362 40.6467832,51.1537 38.9461291,50.55152 C37.245475,49.8919895 36.2250825,49.232459 36.2250825,49.232459 L34.9212476,53.4190438 L34.7511822,53.9925486 L34.1559532,52.3007095 C35.4881323,50.4081438 34.0425763,50.322118 33.8158224,50.322118 L33.8158224,50.322118 L33.8158224,50.322118 L33.8158224,50.322118 L33.8158224,50.322118 L33.8158224,50.322118 L33.8158224,50.322118 C33.5607243,50.322118 32.1151683,50.4081438 33.4756916,52.3007095 L32.8804626,53.9925486 L32.7103972,53.4190438 L31.4065624,49.232459 C31.4065624,49.232459 30.3861699,49.8919895 28.6855157,50.55152 C26.9565174,51.1823752 26.8998289,52.5014362 26.8714846,54.881481 L26.8714846,54.881481 Z"/>
      <path fill="#2D8FE2" d="M30.2444487,45.5046779 C30.4712026,46.3362599 30.6979565,46.5656618 30.8396777,46.5656618 C30.9813988,47.5406199 31.7466932,48.8023304 32.9654953,49.232459 C33.4756916,49.4045104 34.0142321,49.4045104 34.5244283,49.232459 C35.7432305,48.8023304 36.5085248,47.5406199 36.650246,46.5656618 C36.8203114,46.5656618 37.0187211,46.3075846 37.245475,45.5046779 C37.5572615,44.3863436 37.2171307,44.2142922 36.9336884,44.2429674 C36.9903768,44.0995912 37.0187211,43.9275398 37.0470653,43.7841636 C37.5289173,40.8592892 36.1117055,40.7445883 36.1117055,40.7445883 C36.1117055,40.7445883 35.8849516,40.2857845 35.2613784,39.9416816 C34.8362149,39.6836044 34.2693302,39.511553 33.5040358,39.5689035 C33.2489377,39.5689035 33.0221838,39.626254 32.7954299,39.7122797 L32.7954299,39.7122797 C32.5119876,39.7983054 32.2568895,39.9416816 32.0301356,40.113733 C31.7466932,40.2857845 31.4632508,40.5151864 31.236497,40.7732635 C30.8680219,41.1747169 30.5278911,41.6621959 30.3861699,42.2930512 C30.2727929,42.751855 30.3011372,43.2680093 30.3861699,43.7841636 L30.3861699,43.7841636 C30.4145141,43.9275398 30.4428584,44.0995912 30.4995468,44.2429674 C30.2727929,44.2142922 29.9326621,44.3863436 30.2444487,45.5046779 L30.2444487,45.5046779 Z"/>
      <path fill="#2D8FE2" fill-rule="nonzero" d="M46.67989,53 C47.6090612,53 48.338251,52.7144371 48.8674594,52.1433112 C49.3966677,51.5721853 49.6612719,50.785359 49.6612719,49.7828322 L49.6612719,49.7828322 L49.6612719,48.546266 C49.6507926,47.5612049 49.3809487,46.7857312 48.8517403,46.219845 C48.3225319,45.6539588 47.6125543,45.3710157 46.7218075,45.3710157 L46.7218075,45.3710157 L44.704528,45.3710157 L44.704528,53 L46.67989,53 Z M46.7060885,51.7215164 L46.244996,51.7215164 L46.244996,46.654739 L46.8056425,46.654739 C47.2842006,46.6687115 47.6230337,46.816296 47.8221418,47.0974926 C48.0212499,47.3786891 48.120804,47.8755861 48.120804,48.5881835 L48.120804,48.5881835 L48.120804,49.9138244 C48.1103246,50.577518 48.0002912,51.0447235 47.7907037,51.3154406 C47.5811162,51.5861578 47.2195778,51.7215164 46.7060885,51.7215164 L46.7060885,51.7215164 Z M52.1815614,53.1047937 C52.6356676,53.1047937 52.9954594,52.9231513 53.2609369,52.5598663 C53.3028544,52.7659606 53.3447719,52.9126719 53.3866894,53 L53.3866894,53 L54.8800002,53 L54.8800002,52.9109253 C54.7472615,52.6349685 54.677399,52.2524713 54.6704127,51.7634339 L54.6704127,51.7634339 L54.6704127,49.0964332 C54.6704127,48.4956157 54.5001229,48.03365 54.1595432,47.710536 C53.8189636,47.3874219 53.3377857,47.2258649 52.7160095,47.2258649 C52.115192,47.2258649 51.618295,47.3961547 51.2253185,47.7367344 C50.832342,48.0773141 50.6358537,48.5095882 50.6358537,49.0335569 L50.6358537,49.0335569 L52.1186851,49.0335569 C52.1186851,48.6004095 52.3038208,48.3838357 52.674092,48.3838357 C52.841762,48.3838357 52.969261,48.4362326 53.0565891,48.5410264 C53.1439172,48.6458201 53.1875813,48.825716 53.1875813,49.0807141 L53.1875813,49.0807141 L53.1875813,49.5365669 L52.7369682,49.5365669 C52.0243708,49.5435531 51.47857,49.7094766 51.099566,50.0343372 C50.720562,50.3591977 50.53106,50.8185436 50.53106,51.4123748 C50.53106,51.9118917 50.6873773,52.3188407 51.000012,52.6332219 C51.3126466,52.9476031 51.7064964,53.1047937 52.1815614,53.1047937 Z M52.5116617,51.9415832 C52.183308,51.9415832 52.0191311,51.7319957 52.0191311,51.3128208 C52.0191311,51.0438502 52.0916134,50.829023 52.2365781,50.6683393 C52.3815428,50.5076555 52.5797776,50.4273137 52.8312826,50.4273137 L52.8312826,50.4273137 L53.1875813,50.4273137 L53.1875813,51.6062433 C53.1316913,51.6970645 53.0461097,51.7756598 52.9308366,51.8420292 C52.8155635,51.9083985 52.6758385,51.9415832 52.5116617,51.9415832 Z M57.1959419,53 L57.1959419,48.881606 C57.3461462,48.6056492 57.5557337,48.4676707 57.8247043,48.4676707 C58.0657299,48.4676707 58.2342732,48.5401531 58.3303341,48.6851177 C58.426395,48.8300824 58.4744255,49.0632485 58.4744255,49.384616 L58.4744255,49.384616 L58.4744255,53 L59.9624966,53 L59.9624966,49.2745825 C59.9345516,47.9087708 59.4332882,47.2258649 58.4587064,47.2258649 C57.9172721,47.2258649 57.478885,47.4476783 57.143545,47.8913052 L57.143545,47.8913052 L57.1016275,47.3306587 L55.7078707,47.3306587 L55.7078707,53 L57.1959419,53 Z M65.548003,53 C66.4771741,53 67.2063639,52.7144371 67.7355723,52.1433112 C68.2647807,51.5721853 68.5293849,50.785359 68.5293849,49.7828322 L68.5293849,49.7828322 L68.5293849,48.546266 C68.5189055,47.5612049 68.2490616,46.7857312 67.7198532,46.219845 C67.1906448,45.6539588 66.4806672,45.3710157 65.5899204,45.3710157 L65.5899204,45.3710157 L63.5726409,45.3710157 L63.5726409,53 L65.548003,53 Z M65.5742014,51.7215164 L65.1131089,51.7215164 L65.1131089,46.654739 L65.6737554,46.654739 C66.1523135,46.6687115 66.4911466,46.816296 66.6902547,47.0974926 C66.8893628,47.3786891 66.9889169,47.8755861 66.9889169,48.5881835 L66.9889169,48.5881835 L66.9889169,49.9138244 C66.9784375,50.577518 66.8684041,51.0447235 66.6588166,51.3154406 C66.4492291,51.5861578 66.0876907,51.7215164 65.5742014,51.7215164 L65.5742014,51.7215164 Z M71.6889161,53.1047937 C72.4119929,53.1047937 72.974386,52.8620216 73.3760953,52.3764772 C73.7778047,51.8909329 73.9786594,51.2167599 73.9786594,50.3539581 L73.9786594,50.3539581 L73.9786594,49.9924197 C73.9786594,49.1261247 73.7760581,48.4484586 73.3708557,47.9594211 C72.9656532,47.4703836 72.4015136,47.2258649 71.6784368,47.2258649 C70.9623462,47.2258649 70.4016997,47.4703836 69.9964972,47.9594211 C69.5912948,48.4484586 69.3886935,49.1226316 69.3886935,49.9819403 L69.3886935,49.9819403 L69.3886935,50.3434787 C69.3886935,51.2097736 69.5904215,51.8865665 69.9938774,52.3738574 C70.3973333,52.8611483 70.9623462,53.1047937 71.6889161,53.1047937 Z M71.6889161,51.8734673 C71.1474818,51.8734673 70.8767646,51.3669642 70.8767646,50.3539581 L70.8767646,50.3539581 L70.8767646,49.9819403 C70.8767646,49.4649578 70.9475004,49.0815874 71.088972,48.831829 C71.2304435,48.5820706 71.4269318,48.4571914 71.6784368,48.4571914 C71.9404211,48.4571914 72.1430223,48.5820706 72.2862404,48.831829 C72.4294586,49.0815874 72.5010676,49.4649578 72.5010676,49.9819403 L72.5010676,49.9819403 L72.4958279,50.605463 C72.4574036,51.4507992 72.188433,51.8734673 71.6889161,51.8734673 Z M77.1905875,53.1047937 C77.5957899,53.1047937 77.9713009,53.0270717 78.3171202,52.8716277 C78.6629395,52.7161836 78.9266704,52.5127091 79.1083129,52.2612041 L79.1083129,52.2612041 L78.5267077,51.3652177 C78.1948608,51.7040507 77.7809256,51.8734673 77.2849019,51.8734673 C76.9425756,51.8734673 76.6893241,51.7765331 76.5251472,51.5826647 C76.3609704,51.3887962 76.2684026,51.0822746 76.2474438,50.6630996 L76.2474438,50.6630996 L79.1973876,50.6630996 L79.1973876,49.9347831 C79.1904014,49.0405432 79.0070123,48.3654968 78.6472205,47.9096441 C78.2874286,47.4537913 77.751234,47.2258649 77.0386366,47.2258649 C76.3085735,47.2258649 75.747927,47.4686371 75.356697,47.9541814 C74.9654671,48.4397257 74.7698521,49.1296179 74.7698521,50.0238578 L74.7698521,50.0238578 L74.7698521,50.4744709 C74.7698521,51.319807 74.9829327,51.9695282 75.4090939,52.4236344 C75.8352551,52.8777406 76.4290863,53.1047937 77.1905875,53.1047937 Z M77.7407546,49.6256416 L76.2579232,49.6256416 C76.2788819,49.216946 76.3478712,48.9200304 76.4648908,48.7348948 C76.5819105,48.5497592 76.769666,48.4571914 77.0281572,48.4571914 C77.2866484,48.4571914 77.4682909,48.5445195 77.5730846,48.7191757 C77.6778784,48.8938319 77.7337684,49.1505766 77.7407546,49.4894097 L77.7407546,49.4894097 L77.7407546,49.6256416 Z"/>
      <g fill-rule="nonzero">
        <use fill="#339FEA" xlink:href="#software-engineers-il-j"/>
        <use fill="#2D8FE2" xlink:href="#software-engineers-il-j"/>
      </g>
      <g fill-rule="nonzero">
        <use fill="#FFF" xlink:href="#software-engineers-il-k"/>
        <rect width="39.678" height="37.337" x="53.752" y="67.204" fill="url(#software-engineers-il-l)" fill-opacity=".3" fill-rule="evenodd" stroke="url(#software-engineers-il-m)" stroke-linejoin="square" stroke-width="1.322" rx="1.118"/>
      </g>
      <rect width="5.563" height="12.886" x="59.429" y="86.459" fill="#2D8FE2"/>
      <rect width="5.563" height="15.229" x="67.216" y="84.116" fill="#2D8FE2"/>
      <polygon fill="#2D8FE2" points="75.004 79.43 80.566 79.43 80.566 99.345 75.004 99.345"/>
      <polygon fill="#2D8FE2" points="82.791 74.744 88.354 74.744 88.354 99.345 82.791 99.345"/>
      <g fill-rule="nonzero">
        <use fill="#FFF" xlink:href="#software-engineers-il-n"/>
        <rect width="40.278" height="37.728" x="100.152" y="66.996" fill="url(#software-engineers-il-o)" fill-opacity=".3" fill-rule="evenodd" stroke="url(#software-engineers-il-p)" stroke-linejoin="square" stroke-width="1.322" rx="1.118"/>
      </g>
      <mask id="software-engineers-il-r" fill="#fff">
        <use xlink:href="#software-engineers-il-q"/>
      </mask>
      <use fill="#2D8FE2" xlink:href="#software-engineers-il-q"/>
      <g mask="url(#software-engineers-il-r)">
        <g transform="translate(120.291 71.355)">
          <mask id="software-engineers-il-t" fill="#fff">
            <use xlink:href="#software-engineers-il-s"/>
          </mask>
          <ellipse cy="14.504" fill="#00C96E" mask="url(#software-engineers-il-t)" rx="11.125" ry="11.157"/>
        </g>
      </g>
      <g mask="url(#software-engineers-il-r)">
        <g transform="rotate(-60 125.893 -50.514)">
          <mask id="software-engineers-il-v" fill="#fff">
            <use xlink:href="#software-engineers-il-u"/>
          </mask>
          <ellipse cx="5.21" cy="12.069" fill="#FF5600" mask="url(#software-engineers-il-v)" rx="11.125" ry="11.157"/>
        </g>
      </g>
      <g fill-rule="nonzero">
        <use fill="#FFF" xlink:href="#software-engineers-il-w"/>
        <use fill="url(#software-engineers-il-x)" fill-opacity=".3" xlink:href="#software-engineers-il-w"/>
      </g>
      <g fill-rule="nonzero">
        <use fill="#FFF" xlink:href="#software-engineers-il-y"/>
        <rect width="39.678" height="37.678" x="7.752" y="66.996" fill="url(#software-engineers-il-z)" fill-opacity=".3" fill-rule="evenodd" stroke="url(#software-engineers-il-A)" stroke-linejoin="square" stroke-width="1.322" rx="1.118"/>
      </g>
      <g stroke-width=".575">
        <use stroke="#FFF" xlink:href="#software-engineers-il-B"/>
        <use stroke="#2D8FE2" xlink:href="#software-engineers-il-B"/>
      </g>
      <ellipse cx="17.601" cy="82.539" fill="#D4E8F9" stroke="#2D8FE2" stroke-width=".575" rx="1.103" ry="1.107"/>
      <ellipse cx="24.832" cy="79.192" fill="#D4E8F9" stroke="#2D8FE2" stroke-width=".575" rx="1.103" ry="1.107"/>
      <ellipse cx="32.063" cy="82.539" fill="#D4E8F9" stroke="#2D8FE2" stroke-width=".575" rx="1.103" ry="1.107"/>
      <ellipse cx="39.295" cy="81.424" fill="#D4E8F9" stroke="#2D8FE2" stroke-width=".575" rx="1.103" ry="1.107"/>
      <line x1="17.601" x2="17.601" y1="85.329" y2="99.229" stroke="#2D8FE2" stroke-linecap="square" stroke-width=".575"/>
      <line x1="24.832" x2="24.832" y1="81.981" y2="99.231" stroke="#2D8FE2" stroke-linecap="square" stroke-width=".575"/>
      <line x1="32.063" x2="32.063" y1="85.329" y2="99.229" stroke="#2D8FE2" stroke-linecap="square" stroke-width=".575"/>
      <line x1="39.295" x2="39.295" y1="84.213" y2="99.233" stroke="#2D8FE2" stroke-linecap="square" stroke-width=".575"/>
      <path fill="#2D8FE2" d="M-3.83693077e-13,3.55136683 C-3.83693077e-13,1.59000109 1.59275673,-1.76747506e-13 3.56110026,-1.76747506e-13 L142.702237,-1.76747506e-13 C144.668978,-1.76747506e-13 146.263337,1.59794941 146.263337,3.55136683 L146.263337,14.6706983 L-3.83693077e-13,14.6706983 L-3.83693077e-13,3.55136683 Z"/>
      <ellipse cx="7.243" cy="7.335" fill="#FFF" rx="2.359" ry="2.386"/>
      <ellipse cx="16.68" cy="7.335" fill="#FFF" rx="2.359" ry="2.386"/>
      <ellipse cx="26.116" cy="7.335" fill="#FFF" rx="2.359" ry="2.386"/>
    </g>
    <path fill="#2D8FE2" fill-rule="nonzero" d="M132.488,188 L132.488,179.008 L132.728,179.008 L135.32,187.552 L137.176,187.552 L139.768,179.008 L140.008,179.008 L140.008,188 L141.8,188 L141.8,177.04 L138.696,177.04 L136.248,185.6 L133.8,177.04 L130.712,177.04 L130.712,188 L132.488,188 Z M150.68,188.176 L150.728,186.848 C150.493333,186.816 150.32,186.744 150.208,186.632 C150.096,186.52 150.034667,186.346667 150.024,186.112 L150.024,186.112 L150.024,182.464 C150.024,181.546667 149.808,180.877333 149.376,180.456 C148.944,180.034667 148.24,179.824 147.264,179.824 C146.288,179.824 145.218667,179.962667 144.056,180.24 L144.056,180.24 L144.12,181.472 L144.632,181.44 C145.656,181.354667 146.509333,181.312 147.192,181.312 C147.554667,181.312 147.829333,181.397333 148.016,181.568 C148.202667,181.738667 148.296,182.037333 148.296,182.464 L148.296,182.464 L148.296,183.04 L146.232,183.216 C145.336,183.290667 144.672,183.509333 144.24,183.872 C143.808,184.234667 143.592,184.821333 143.592,185.632 C143.592,187.328 144.386667,188.176 145.976,188.176 C146.84,188.176 147.698667,187.978667 148.552,187.584 C149.053333,187.978667 149.762667,188.176 150.68,188.176 L150.68,188.176 Z M146.312,186.752 C145.661333,186.752 145.336,186.384 145.336,185.648 C145.336,184.912 145.704,184.512 146.44,184.448 L146.44,184.448 L148.296,184.272 L148.296,186.4 L148.008,186.496 C147.410667,186.666667 146.845333,186.752 146.312,186.752 Z M155.176,188.176 C155.72,188.176 156.530667,188.08 157.608,187.888 L157.608,187.888 L157.56,186.496 L155.688,186.624 C154.845333,186.624 154.290667,186.432 154.024,186.048 C153.757333,185.664 153.624,184.970667 153.624,183.968 C153.624,182.965333 153.762667,182.282667 154.04,181.92 C154.317333,181.557333 154.861333,181.376 155.672,181.376 C156.077333,181.376 156.701333,181.418667 157.544,181.504 L157.544,181.504 L157.608,180.128 L157.208,180.048 C156.44,179.898667 155.773333,179.824 155.208,179.824 C154.024,179.824 153.170667,180.141333 152.648,180.776 C152.125333,181.410667 151.864,182.474667 151.864,183.968 C151.864,185.461333 152.112,186.536 152.608,187.192 C153.104,187.848 153.96,188.176 155.176,188.176 Z M161.032,188 L161.032,181.728 L161.288,181.632 C161.8,181.461333 162.312,181.376 162.824,181.376 C163.410667,181.376 163.794667,181.557333 163.976,181.92 C164.157333,182.282667 164.248,182.896 164.248,183.76 L164.248,183.76 L164.248,188 L165.992,188 L165.992,183.712 C165.992,182.325333 165.797333,181.330667 165.408,180.728 C165.018667,180.125333 164.290667,179.824 163.224,179.824 C162.552,179.824 161.821333,180.021333 161.032,180.416 L161.032,180.416 L161.032,176.672 L159.288,176.672 L159.288,188 L161.032,188 Z M169.768,178.64 L169.768,176.8 L168.024,176.8 L168.024,178.64 L169.768,178.64 Z M169.768,188 L169.768,180 L168.024,180 L168.024,188 L169.768,188 Z M173.624,188 L173.624,181.792 L173.864,181.696 C174.365333,181.482667 174.888,181.376 175.432,181.376 C176.008,181.376 176.389333,181.557333 176.576,181.92 C176.762667,182.282667 176.856,182.896 176.856,183.76 L176.856,183.76 L176.856,188 L178.584,188 L178.584,183.712 C178.584,182.325333 178.389333,181.330667 178,180.728 C177.610667,180.125333 176.882667,179.824 175.816,179.824 C175.122667,179.824 174.386667,180.048 173.608,180.496 L173.608,180.496 L173.608,180 L171.88,180 L171.88,188 L173.624,188 Z M183.56,188.176 C184.498667,188.176 185.576,188.053333 186.792,187.808 L186.792,187.808 L186.76,186.512 L186.312,186.56 C185.512,186.624 184.733333,186.656 183.976,186.656 C183.218667,186.656 182.701333,186.501333 182.424,186.192 C182.146667,185.882667 182.002667,185.397333 181.992,184.736 L181.992,184.736 L186.952,184.736 L187.064,183.488 C187.064,181.045333 185.944,179.824 183.704,179.824 C181.389333,179.824 180.232,181.242667 180.232,184.08 C180.232,185.509333 180.490667,186.549333 181.008,187.2 C181.525333,187.850667 182.376,188.176 183.56,188.176 Z M185.352,183.392 L181.976,183.392 C181.986667,182.634667 182.128,182.090667 182.4,181.76 C182.672,181.429333 183.106667,181.264 183.704,181.264 C184.301333,181.264 184.725333,181.421333 184.976,181.736 C185.226667,182.050667 185.352,182.602667 185.352,183.392 L185.352,183.392 Z M198.616,188 L198.616,186.416 L194.248,186.416 L194.248,177.04 L192.472,177.04 L192.472,188 L198.616,188 Z M202.808,188.176 C203.746667,188.176 204.824,188.053333 206.04,187.808 L206.04,187.808 L206.008,186.512 L205.56,186.56 C204.76,186.624 203.981333,186.656 203.224,186.656 C202.466667,186.656 201.949333,186.501333 201.672,186.192 C201.394667,185.882667 201.250667,185.397333 201.24,184.736 L201.24,184.736 L206.2,184.736 L206.312,183.488 C206.312,181.045333 205.192,179.824 202.952,179.824 C200.637333,179.824 199.48,181.242667 199.48,184.08 C199.48,185.509333 199.738667,186.549333 200.256,187.2 C200.773333,187.850667 201.624,188.176 202.808,188.176 Z M204.6,183.392 L201.224,183.392 C201.234667,182.634667 201.376,182.090667 201.648,181.76 C201.92,181.429333 202.354667,181.264 202.952,181.264 C203.549333,181.264 203.973333,181.421333 204.224,181.736 C204.474667,182.050667 204.6,182.602667 204.6,183.392 L204.6,183.392 Z M214.568,188.176 L214.616,186.848 C214.381333,186.816 214.208,186.744 214.096,186.632 C213.984,186.52 213.922667,186.346667 213.912,186.112 L213.912,186.112 L213.912,182.464 C213.912,181.546667 213.696,180.877333 213.264,180.456 C212.832,180.034667 212.128,179.824 211.152,179.824 C210.176,179.824 209.106667,179.962667 207.944,180.24 L207.944,180.24 L208.008,181.472 L208.52,181.44 C209.544,181.354667 210.397333,181.312 211.08,181.312 C211.442667,181.312 211.717333,181.397333 211.904,181.568 C212.090667,181.738667 212.184,182.037333 212.184,182.464 L212.184,182.464 L212.184,183.04 L210.12,183.216 C209.224,183.290667 208.56,183.509333 208.128,183.872 C207.696,184.234667 207.48,184.821333 207.48,185.632 C207.48,187.328 208.274667,188.176 209.864,188.176 C210.728,188.176 211.586667,187.978667 212.44,187.584 C212.941333,187.978667 213.650667,188.176 214.568,188.176 L214.568,188.176 Z M210.2,186.752 C209.549333,186.752 209.224,186.384 209.224,185.648 C209.224,184.912 209.592,184.512 210.328,184.448 L210.328,184.448 L212.184,184.272 L212.184,186.4 L211.896,186.496 C211.298667,186.666667 210.733333,186.752 210.2,186.752 Z M217.848,188 L217.848,182.416 L218.2,182.272 C218.850667,181.984 219.634667,181.749333 220.552,181.568 L220.552,181.568 L220.552,179.824 C219.645333,179.994667 218.738667,180.373333 217.832,180.96 L217.832,180.96 L217.832,180 L216.104,180 L216.104,188 L217.848,188 Z M223.624,188 L223.624,181.792 L223.864,181.696 C224.365333,181.482667 224.888,181.376 225.432,181.376 C226.008,181.376 226.389333,181.557333 226.576,181.92 C226.762667,182.282667 226.856,182.896 226.856,183.76 L226.856,183.76 L226.856,188 L228.584,188 L228.584,183.712 C228.584,182.325333 228.389333,181.330667 228,180.728 C227.610667,180.125333 226.882667,179.824 225.816,179.824 C225.122667,179.824 224.386667,180.048 223.608,180.496 L223.608,180.496 L223.608,180 L221.88,180 L221.88,188 L223.624,188 Z M232.36,178.64 L232.36,176.8 L230.616,176.8 L230.616,178.64 L232.36,178.64 Z M232.36,188 L232.36,180 L230.616,180 L230.616,188 L232.36,188 Z M236.216,188 L236.216,181.792 L236.456,181.696 C236.957333,181.482667 237.48,181.376 238.024,181.376 C238.6,181.376 238.981333,181.557333 239.168,181.92 C239.354667,182.282667 239.448,182.896 239.448,183.76 L239.448,183.76 L239.448,188 L241.176,188 L241.176,183.712 C241.176,182.325333 240.981333,181.330667 240.592,180.728 C240.202667,180.125333 239.474667,179.824 238.408,179.824 C237.714667,179.824 236.978667,180.048 236.2,180.496 L236.2,180.496 L236.2,180 L234.472,180 L234.472,188 L236.216,188 Z M246.408,191.712 C248.936,191.712 250.2,190.837333 250.2,189.088 C250.2,188.170667 249.965333,187.546667 249.496,187.216 C249.026667,186.885333 248.157333,186.714667 246.888,186.704 C246.130667,186.693333 245.653333,186.650667 245.456,186.576 C245.258667,186.501333 245.16,186.365333 245.16,186.168 C245.16,185.970667 245.234667,185.690667 245.384,185.328 C245.576,185.370667 245.810667,185.392 246.088,185.392 C247.208,185.392 248.032,185.192 248.56,184.792 C249.088,184.392 249.352,183.669333 249.352,182.624 C249.352,182.122667 249.208,181.685333 248.92,181.312 L248.92,181.312 L250.248,181.392 L250.248,179.984 L247.768,180.048 L247.528,180 C247.069333,179.893333 246.605333,179.84 246.136,179.84 C245.154667,179.84 244.376,180.064 243.8,180.512 C243.224,180.96 242.936,181.664 242.936,182.624 C242.936,183.765333 243.32,184.565333 244.088,185.024 L244.088,185.024 L243.944,185.264 C243.656,185.744 243.512,186.090667 243.512,186.304 C243.512,186.848 243.688,187.237333 244.04,187.472 C243.613333,187.802667 243.304,188.109333 243.112,188.392 C242.92,188.674667 242.824,189.013333 242.824,189.408 C242.824,190.282667 243.117333,190.885333 243.704,191.216 C244.290667,191.546667 245.192,191.712 246.408,191.712 Z M246.152,184.048 C245.629333,184.048 245.250667,183.933333 245.016,183.704 C244.781333,183.474667 244.664,183.114667 244.664,182.624 C244.664,181.674667 245.154667,181.2 246.136,181.2 C246.658667,181.2 247.037333,181.314667 247.272,181.544 C247.506667,181.773333 247.624,182.133333 247.624,182.624 C247.624,183.114667 247.509333,183.474667 247.28,183.704 C247.050667,183.933333 246.674667,184.048 246.152,184.048 Z M246.52,190.288 C245.794667,190.288 245.282667,190.208 244.984,190.048 C244.685333,189.888 244.536,189.621333 244.536,189.248 C244.536,189.013333 244.584,188.813333 244.68,188.648 C244.776,188.482667 244.941333,188.304 245.176,188.112 L245.176,188.112 L246.744,188.208 C247.426667,188.218667 247.882667,188.28 248.112,188.392 C248.341333,188.504 248.456,188.768 248.456,189.184 C248.456,189.92 247.810667,190.288 246.52,190.288 Z M157.536,205.176 L157.584,203.848 C157.349333,203.816 157.176,203.744 157.064,203.632 C156.952,203.52 156.890667,203.346667 156.88,203.112 L156.88,203.112 L156.88,199.464 C156.88,198.546667 156.664,197.877333 156.232,197.456 C155.8,197.034667 155.096,196.824 154.12,196.824 C153.144,196.824 152.074667,196.962667 150.912,197.24 L150.912,197.24 L150.976,198.472 L151.488,198.44 C152.512,198.354667 153.365333,198.312 154.048,198.312 C154.410667,198.312 154.685333,198.397333 154.872,198.568 C155.058667,198.738667 155.152,199.037333 155.152,199.464 L155.152,199.464 L155.152,200.04 L153.088,200.216 C152.192,200.290667 151.528,200.509333 151.096,200.872 C150.664,201.234667 150.448,201.821333 150.448,202.632 C150.448,204.328 151.242667,205.176 152.832,205.176 C153.696,205.176 154.554667,204.978667 155.408,204.584 C155.909333,204.978667 156.618667,205.176 157.536,205.176 L157.536,205.176 Z M153.168,203.752 C152.517333,203.752 152.192,203.384 152.192,202.648 C152.192,201.912 152.56,201.512 153.296,201.448 L153.296,201.448 L155.152,201.272 L155.152,203.4 L154.864,203.496 C154.266667,203.666667 153.701333,203.752 153.168,203.752 Z M161.728,205.176 C162.762667,205.176 163.549333,204.978667 164.088,204.584 C164.626667,204.189333 164.896,203.570667 164.896,202.728 C164.896,201.885333 164.709333,201.298667 164.336,200.968 C163.962667,200.637333 163.330667,200.394667 162.44,200.24 C161.549333,200.085333 160.984,199.949333 160.744,199.832 C160.504,199.714667 160.384,199.512 160.384,199.224 C160.384,198.936 160.493333,198.725333 160.712,198.592 C160.930667,198.458667 161.322667,198.392 161.888,198.392 C162.453333,198.392 163.365333,198.477333 164.624,198.648 L164.624,198.648 L164.656,197.192 L164.16,197.096 C163.168,196.925333 162.330667,196.84 161.648,196.84 C160.773333,196.84 160.056,197.042667 159.496,197.448 C158.936,197.853333 158.656,198.466667 158.656,199.288 C158.656,200.109333 158.858667,200.674667 159.264,200.984 C159.669333,201.293333 160.306667,201.52 161.176,201.664 C162.045333,201.808 162.594667,201.941333 162.824,202.064 C163.053333,202.186667 163.168,202.408 163.168,202.728 C163.168,203.048 163.048,203.277333 162.808,203.416 C162.568,203.554667 162.165333,203.624 161.6,203.624 C161.034667,203.624 160.112,203.538667 158.832,203.368 L158.832,203.368 L158.768,204.824 L159.264,204.904 C160.256,205.085333 161.077333,205.176 161.728,205.176 Z M176.672,205.176 L176.72,203.848 C176.485333,203.816 176.312,203.744 176.2,203.632 C176.088,203.52 176.026667,203.346667 176.016,203.112 L176.016,203.112 L176.016,199.464 C176.016,198.546667 175.8,197.877333 175.368,197.456 C174.936,197.034667 174.232,196.824 173.256,196.824 C172.28,196.824 171.210667,196.962667 170.048,197.24 L170.048,197.24 L170.112,198.472 L170.624,198.44 C171.648,198.354667 172.501333,198.312 173.184,198.312 C173.546667,198.312 173.821333,198.397333 174.008,198.568 C174.194667,198.738667 174.288,199.037333 174.288,199.464 L174.288,199.464 L174.288,200.04 L172.224,200.216 C171.328,200.290667 170.664,200.509333 170.232,200.872 C169.8,201.234667 169.584,201.821333 169.584,202.632 C169.584,204.328 170.378667,205.176 171.968,205.176 C172.832,205.176 173.690667,204.978667 174.544,204.584 C175.045333,204.978667 175.754667,205.176 176.672,205.176 L176.672,205.176 Z M172.304,203.752 C171.653333,203.752 171.328,203.384 171.328,202.648 C171.328,201.912 171.696,201.512 172.432,201.448 L172.432,201.448 L174.288,201.272 L174.288,203.4 L174,203.496 C173.402667,203.666667 172.837333,203.752 172.304,203.752 Z M185.04,205.176 C186.170667,205.176 187.064,204.890667 187.72,204.32 C188.376,203.749333 188.704,202.888 188.704,201.736 C188.704,200.829333 188.48,200.165333 188.032,199.744 C187.584,199.322667 186.813333,198.96 185.72,198.656 C184.626667,198.352 183.92,198.096 183.6,197.888 C183.28,197.68 183.12,197.330667 183.12,196.84 C183.12,195.890667 183.797333,195.416 185.152,195.416 C185.770667,195.416 186.826667,195.501333 188.32,195.672 L188.32,195.672 L188.464,194.232 L187.904,194.136 C186.784,193.944 185.813333,193.848 184.992,193.848 C183.850667,193.848 182.957333,194.101333 182.312,194.608 C181.666667,195.114667 181.344,195.864 181.344,196.856 C181.344,197.848 181.6,198.573333 182.112,199.032 C182.624,199.490667 183.402667,199.850667 184.448,200.112 C185.493333,200.373333 186.165333,200.613333 186.464,200.832 C186.762667,201.050667 186.912,201.389333 186.912,201.848 C186.912,203.021333 186.250667,203.608 184.928,203.608 C184.170667,203.608 183.072,203.512 181.632,203.32 L181.632,203.32 L181.456,204.744 L182.032,204.856 C183.130667,205.069333 184.133333,205.176 185.04,205.176 Z M193.36,205.176 C194.298667,205.176 195.376,205.053333 196.592,204.808 L196.592,204.808 L196.56,203.512 L196.112,203.56 C195.312,203.624 194.533333,203.656 193.776,203.656 C193.018667,203.656 192.501333,203.501333 192.224,203.192 C191.946667,202.882667 191.802667,202.397333 191.792,201.736 L191.792,201.736 L196.752,201.736 L196.864,200.488 C196.864,198.045333 195.744,196.824 193.504,196.824 C191.189333,196.824 190.032,198.242667 190.032,201.08 C190.032,202.509333 190.290667,203.549333 190.808,204.2 C191.325333,204.850667 192.176,205.176 193.36,205.176 Z M195.152,200.392 L191.776,200.392 C191.786667,199.634667 191.928,199.090667 192.2,198.76 C192.472,198.429333 192.906667,198.264 193.504,198.264 C194.101333,198.264 194.525333,198.421333 194.776,198.736 C195.026667,199.050667 195.152,199.602667 195.152,200.392 L195.152,200.392 Z M200.288,205 L200.288,199.416 L200.64,199.272 C201.290667,198.984 202.074667,198.749333 202.992,198.568 L202.992,198.568 L202.992,196.824 C202.085333,196.994667 201.178667,197.373333 200.272,197.96 L200.272,197.96 L200.272,197 L198.544,197 L198.544,205 L200.288,205 Z M208.736,205 L210.816,197 L209.04,197 L207.44,203.512 L206.928,203.512 L205.392,197 L203.568,197 L205.632,205 L208.736,205 Z M213.92,195.64 L213.92,193.8 L212.176,193.8 L212.176,195.64 L213.92,195.64 Z M213.92,205 L213.92,197 L212.176,197 L212.176,205 L213.92,205 Z M218.992,205.176 C219.536,205.176 220.346667,205.08 221.424,204.888 L221.424,204.888 L221.376,203.496 L219.504,203.624 C218.661333,203.624 218.106667,203.432 217.84,203.048 C217.573333,202.664 217.44,201.970667 217.44,200.968 C217.44,199.965333 217.578667,199.282667 217.856,198.92 C218.133333,198.557333 218.677333,198.376 219.488,198.376 C219.893333,198.376 220.517333,198.418667 221.36,198.504 L221.36,198.504 L221.424,197.128 L221.024,197.048 C220.256,196.898667 219.589333,196.824 219.024,196.824 C217.84,196.824 216.986667,197.141333 216.464,197.776 C215.941333,198.410667 215.68,199.474667 215.68,200.968 C215.68,202.461333 215.928,203.536 216.424,204.192 C216.92,204.848 217.776,205.176 218.992,205.176 Z M225.968,205.176 C226.906667,205.176 227.984,205.053333 229.2,204.808 L229.2,204.808 L229.168,203.512 L228.72,203.56 C227.92,203.624 227.141333,203.656 226.384,203.656 C225.626667,203.656 225.109333,203.501333 224.832,203.192 C224.554667,202.882667 224.410667,202.397333 224.4,201.736 L224.4,201.736 L229.36,201.736 L229.472,200.488 C229.472,198.045333 228.352,196.824 226.112,196.824 C223.797333,196.824 222.64,198.242667 222.64,201.08 C222.64,202.509333 222.898667,203.549333 223.416,204.2 C223.933333,204.850667 224.784,205.176 225.968,205.176 Z M227.76,200.392 L224.384,200.392 C224.394667,199.634667 224.536,199.090667 224.808,198.76 C225.08,198.429333 225.514667,198.264 226.112,198.264 C226.709333,198.264 227.133333,198.421333 227.384,198.736 C227.634667,199.050667 227.76,199.602667 227.76,200.392 L227.76,200.392 Z"/>
  </g>
</svg>
